<svg width="57" height="20" viewBox="0 0 57 20" fill="none" xmlns="http://www.w3.org/2000/svg">
<g id="app-store.8e66bac6 2" clip-path="url(#clip0_994_4214)">
<path id="Vector" d="M52.4606 0.108398H3.58239C3.26313 0.113292 2.94469 0.141871 2.62969 0.193898C2.31475 0.248171 2.00969 0.349033 1.72462 0.493148C1.43768 0.63749 1.17688 0.828526 0.952938 1.0584C0.724109 1.28207 0.534156 1.54211 0.390845 1.8279C0.24632 2.11216 0.145172 2.41635 0.0907451 2.7304C0.0375865 3.0443 0.0105014 3.36205 0.00976562 3.6804V15.5364C0.0105014 15.8547 0.0375865 16.1725 0.0907451 16.4864C0.145128 16.802 0.246267 17.1077 0.390845 17.3936C0.535485 17.6772 0.725317 17.9355 0.952938 18.1584C1.17724 18.3866 1.43803 18.576 1.72462 18.7189C2.00969 18.863 2.31475 18.9639 2.62969 19.0181C2.94469 19.0702 3.26313 19.0988 3.58239 19.1036H53.4181C53.7374 19.099 54.0558 19.0704 54.3708 19.0181C54.6871 18.9632 54.9936 18.8624 55.2806 18.7189C55.5665 18.5747 55.827 18.3855 56.0523 18.1584C56.277 17.933 56.4665 17.6752 56.6144 17.3936C56.7553 17.1067 56.8548 16.8012 56.9097 16.4864C56.9621 16.1723 56.9908 15.8548 56.9955 15.5364V3.6804C56.9908 3.36204 56.9621 3.04448 56.9097 2.7304C56.8548 2.41711 56.7553 2.11322 56.6144 1.8279C56.4678 1.54412 56.2782 1.28458 56.0523 1.0584C55.827 0.831324 55.5665 0.64205 55.2806 0.497898C54.9936 0.354436 54.6871 0.253619 54.3708 0.198648C54.0558 0.14641 53.7374 0.11783 53.4181 0.113148H52.4654L52.4606 0.108398Z" fill="#B7B7B7"/>
<path id="Vector_2" d="M4.01941 18.6895H3.5907C3.29271 18.6947 2.9948 18.6756 2.69992 18.6325C2.42184 18.5781 2.15363 18.482 1.90442 18.3475C1.65872 18.2271 1.43493 18.0665 1.24229 17.8725C1.04751 17.6788 0.886518 17.4541 0.765943 17.2075C0.639082 16.9594 0.550744 16.6936 0.50395 16.419C0.455521 16.1254 0.430039 15.8284 0.427734 15.5308V3.69377C0.429845 3.39616 0.455328 3.09917 0.50395 2.80552C0.547555 2.5278 0.634341 2.25857 0.761179 2.00752C0.880729 1.76037 1.04184 1.53545 1.23753 1.34252C1.43356 1.15041 1.65859 0.990127 1.90442 0.867523C2.15321 0.741022 2.41983 0.652934 2.69516 0.606273C2.99123 0.557735 3.29065 0.532325 3.5907 0.530273H53.4121C53.709 0.532778 54.0052 0.558188 54.2981 0.606273C54.5747 0.653932 54.8428 0.74196 55.0936 0.867523C55.5877 1.11676 55.9896 1.51592 56.2416 2.00752C56.3655 2.25475 56.4522 2.51884 56.4988 2.79127C56.5464 3.08673 56.5735 3.3851 56.5798 3.68427V15.5308C56.5737 15.8252 56.5466 16.1189 56.4988 16.4095C56.4536 16.6853 56.3669 16.9528 56.2416 17.2028C56.1189 17.4466 55.9581 17.6695 55.7653 17.863C55.571 18.0573 55.3456 18.2178 55.0984 18.338C54.8507 18.478 54.5821 18.5774 54.3029 18.6325C54.0085 18.682 53.7106 18.7074 53.4121 18.7085H4.01941V18.6895Z" fill="#010101"/>
<path id="Vector_3" d="M11.7976 9.75049C11.8018 9.35378 11.9072 8.96466 12.1038 8.61979C12.3005 8.27492 12.582 7.98565 12.9218 7.77924C12.7059 7.47241 12.4213 7.21994 12.0906 7.04185C11.7598 6.86376 11.3921 6.76495 11.0164 6.75324C10.2209 6.66774 9.44441 7.22824 9.03475 7.22824C8.62509 7.22824 7.99154 6.75324 7.31513 6.75324C6.87808 6.76742 6.45218 6.89434 6.07899 7.12161C5.7058 7.34888 5.39808 7.66875 5.18584 8.04999C4.28554 9.66024 4.95243 11.983 5.83368 13.2845C6.27668 13.9162 6.78638 14.6192 7.46756 14.5907C8.14874 14.5622 8.37262 14.1727 9.17289 14.1727C9.97316 14.1727 10.1923 14.5907 10.883 14.5765C11.5737 14.5622 12.0405 13.9447 12.4645 13.3082C12.781 12.8596 13.0253 12.3643 13.1885 11.8405C12.776 11.6674 12.424 11.3767 12.1765 11.0049C11.9291 10.6331 11.7973 10.1967 11.7976 9.75049ZM10.4781 5.90774C10.863 5.44432 11.0526 4.85001 11.0068 4.24999C10.4164 4.31354 9.87104 4.59475 9.47775 5.03849C9.09231 5.47801 8.89707 6.05183 8.93472 6.63449C9.2303 6.6374 9.52271 6.57352 9.79001 6.44765C10.0573 6.32179 10.2925 6.1372 10.4781 5.90774ZM20.148 12.9995H17.8949L17.3518 14.5955H16.3991L18.5332 8.69599H19.5287L21.6628 14.5955H20.7101L20.148 12.9995ZM18.1283 12.2632H19.9146L19.0524 9.67449H19.0286L18.1283 12.2632ZM26.2738 12.458C26.2738 13.7927 25.5546 14.6525 24.4732 14.6525C24.1973 14.6641 23.9237 14.5981 23.6837 14.4621C23.4436 14.326 23.2468 14.1253 23.1156 13.883V16.011H22.2106V10.311H23.068V11.033C23.2072 10.7941 23.4088 10.5974 23.6512 10.4635C23.8935 10.3297 24.1678 10.2639 24.4447 10.273C25.5546 10.2492 26.2738 11.109 26.2738 12.458ZM25.364 12.458C25.364 11.5887 24.8877 11.033 24.2255 11.033C23.5634 11.033 23.0918 11.6172 23.0918 12.458C23.0918 13.2987 23.5682 13.9067 24.2255 13.9067C24.8829 13.9067 25.364 13.3225 25.364 12.458ZM31.0183 12.458C31.0183 13.7927 30.3038 14.6525 29.2224 14.6525C28.9465 14.6647 28.6726 14.5989 28.4325 14.4628C28.1923 14.3267 27.9955 14.1257 27.8649 13.883V16.011H26.9598V10.311H27.8172V11.033C27.9561 10.7949 28.1568 10.5986 28.3983 10.4648C28.6398 10.331 28.913 10.2647 29.1891 10.273C30.299 10.2492 31.0183 11.109 31.0183 12.458ZM30.1085 12.458C30.1085 11.5887 29.6607 11.033 28.97 11.033C28.2793 11.033 27.841 11.6172 27.841 12.458C27.841 13.2987 28.2936 13.883 28.97 13.883C29.6464 13.883 30.1085 13.3225 30.1085 12.458ZM34.1574 12.933C34.2241 13.5172 34.791 13.883 35.5865 13.883C36.382 13.883 36.8679 13.4982 36.8679 12.971C36.8679 12.4437 36.5439 12.2395 35.777 12.0495L35.0101 11.8642C33.924 11.603 33.4239 11.0995 33.4239 10.2777C33.4239 9.25649 34.3099 8.55824 35.5722 8.55824C36.8345 8.55824 37.6824 9.25649 37.711 10.2777H36.8012C36.7488 9.68874 36.2581 9.32774 35.5484 9.32774C34.8386 9.32774 34.348 9.68399 34.348 10.2112C34.348 10.6245 34.6576 10.8715 35.4198 11.0615L36.0724 11.2182C37.287 11.5032 37.792 11.9925 37.792 12.8522C37.792 13.959 36.906 14.6477 35.5055 14.6477C34.1955 14.6477 33.3095 13.9732 33.2524 12.9092L34.1574 12.933ZM39.7021 9.27549V10.292H40.5215V10.9902H39.7021V13.3652C39.7021 13.731 39.8641 13.902 40.2261 13.902C40.3229 13.9079 40.4199 13.9079 40.5167 13.902V14.5955C40.3597 14.625 40.2001 14.6393 40.0403 14.6382C39.1639 14.6382 38.8257 14.3105 38.8257 13.4745V10.9902H38.1826V10.292H38.8114V9.27549H39.7021ZM40.993 12.458C40.993 11.1042 41.7933 10.254 43.0414 10.254C44.2894 10.254 45.0849 11.1042 45.0849 12.458C45.0849 13.8117 44.2989 14.6477 43.0414 14.6477C41.7838 14.6477 40.993 13.8022 40.993 12.458ZM44.1846 12.458C44.1846 11.5317 43.7559 10.9807 43.0414 10.9807C42.3268 10.9807 41.9172 11.508 41.9172 12.458C41.9172 13.408 42.3411 13.9352 43.0604 13.9352C43.7797 13.9352 44.1846 13.3747 44.1846 12.458ZM45.8185 10.292H46.6807V11.033C46.7384 10.8047 46.8731 10.6032 47.0622 10.4622C47.2513 10.3213 47.4832 10.2494 47.7191 10.2587C47.8217 10.2571 47.9241 10.2683 48.024 10.292V11.1185C47.8999 11.067 47.7676 11.0381 47.6334 11.033C47.5003 11.0233 47.3668 11.0433 47.2425 11.0916C47.1183 11.14 47.0064 11.2154 46.9151 11.3123C46.8238 11.4093 46.7553 11.5254 46.7148 11.6521C46.6742 11.7788 46.6626 11.913 46.6807 12.0447V14.5955H45.8185V10.292ZM52.1015 13.332C51.9824 14.111 51.2203 14.6477 50.2485 14.6477C48.991 14.6477 48.2145 13.807 48.2145 12.4627C48.2145 11.1185 48.9957 10.2397 50.2104 10.2397C51.4251 10.2397 52.1539 11.0567 52.1539 12.363V12.6622H49.1053V12.7192C49.0917 12.8775 49.1119 13.0368 49.1647 13.1867C49.2176 13.3365 49.3017 13.4735 49.4116 13.5885C49.5215 13.7034 49.6546 13.7938 49.8022 13.8536C49.9498 13.9134 50.1084 13.9412 50.2676 13.9352C50.4765 13.9547 50.6861 13.9065 50.8655 13.7979C51.0448 13.6892 51.1842 13.5259 51.2631 13.332H52.1015ZM49.11 12.0447H51.2679C51.2758 11.9026 51.2542 11.7604 51.2043 11.6271C51.1544 11.4938 51.0774 11.3722 50.978 11.27C50.8787 11.1678 50.7592 11.0872 50.6271 11.0334C50.495 10.9795 50.3531 10.9535 50.2104 10.957C50.0665 10.9564 49.9239 10.984 49.7908 11.0383C49.6576 11.0927 49.5365 11.1726 49.4343 11.2736C49.3321 11.3746 49.2509 11.4947 49.1953 11.627C49.1396 11.7593 49.1107 11.9013 49.11 12.0447ZM16.985 4.08849H18.052C18.3191 4.08103 18.5835 4.14325 18.819 4.26899C19.0266 4.38528 19.193 4.56283 19.2953 4.77724C19.4158 5.02907 19.4746 5.30583 19.4668 5.58474C19.4744 5.86669 19.4157 6.14651 19.2953 6.40174C19.1952 6.62003 19.0285 6.80122 18.819 6.91949C18.5815 7.0446 18.3158 7.10675 18.0473 7.09999H16.985V4.08849ZM18.0092 6.69624C18.2063 6.70613 18.4024 6.66176 18.576 6.56799C18.7242 6.48337 18.8411 6.35347 18.9095 6.19749C18.9911 6.00708 19.0301 5.80122 19.0238 5.59424C19.0294 5.38885 18.9904 5.18469 18.9095 4.99574C18.8379 4.84032 18.7197 4.71087 18.5713 4.62524C18.4054 4.53891 18.2201 4.49639 18.033 4.50174H17.4566V6.70099L18.0092 6.69624ZM20.4814 7.00499C20.3226 6.91286 20.1949 6.7756 20.1146 6.61074C20.0239 6.42116 19.9798 6.21272 19.986 6.00274C19.9809 5.79439 20.025 5.58775 20.1146 5.39949C20.1968 5.23475 20.324 5.09645 20.4814 5.00049C20.6507 4.91026 20.8397 4.86306 21.0316 4.86306C21.2236 4.86306 21.4125 4.91026 21.5818 5.00049C21.7394 5.09267 21.8656 5.23005 21.9438 5.39474C22.0378 5.58165 22.0837 5.78898 22.0772 5.99799C22.0742 6.21447 22.0169 6.42676 21.9105 6.61549C21.8294 6.777 21.7038 6.91212 21.5485 7.00499C21.3803 7.09859 21.1909 7.14772 20.9983 7.14772C20.8057 7.14772 20.6163 7.09859 20.4481 7.00499H20.4814ZM21.3389 6.67724C21.4289 6.61067 21.4982 6.52011 21.5389 6.41599C21.5898 6.28426 21.614 6.14383 21.6104 6.00274C21.6137 5.86322 21.5894 5.72442 21.5389 5.59424C21.4996 5.49063 21.4299 5.40124 21.3389 5.33774C21.2473 5.27884 21.1406 5.24751 21.0316 5.24751C20.9226 5.24751 20.816 5.27884 20.7244 5.33774C20.6343 5.40344 20.5636 5.49202 20.5195 5.59424C20.4691 5.72442 20.4448 5.86322 20.4481 6.00274C20.4444 6.14383 20.4687 6.28426 20.5195 6.41599C20.5618 6.52057 20.6328 6.61113 20.7244 6.67724C20.8165 6.73684 20.9242 6.76822 21.034 6.76749C21.1376 6.76618 21.2386 6.73482 21.3246 6.67724H21.3389ZM22.3868 4.90549H22.8394L23.2395 6.63449L23.692 4.90549H24.1303L24.6066 6.63449L25.0068 4.90549H25.4545L24.8543 7.10474H24.378L23.9016 5.45649L23.4253 7.10474H22.9489L22.3868 4.90549ZM25.8928 4.90549H26.3691V5.23799C26.4287 5.12615 26.5176 5.03256 26.6263 4.96724C26.7541 4.89541 26.8989 4.85931 27.0455 4.86274C27.1494 4.85734 27.2532 4.87403 27.3501 4.9117C27.4471 4.94938 27.5348 5.00717 27.6076 5.08124C27.748 5.24825 27.8195 5.46217 27.8077 5.67974V7.10474H27.3313V5.76999C27.3404 5.63226 27.2999 5.49582 27.217 5.38524C27.1704 5.34033 27.1151 5.30537 27.0545 5.2825C26.9939 5.25963 26.9293 5.24933 26.8645 5.25224C26.7676 5.25029 26.672 5.27494 26.5882 5.32349C26.5099 5.37121 26.447 5.44048 26.4072 5.52299C26.3618 5.61614 26.3389 5.71865 26.3405 5.82224V7.10474H25.8642L25.8928 4.90549ZM28.4222 4.08849H28.8747V7.10474H28.4222V4.08849ZM29.9132 7.00499C29.7555 6.91281 29.6294 6.77543 29.5511 6.61074C29.4587 6.42156 29.413 6.21311 29.4178 6.00274C29.4074 5.79393 29.4466 5.58563 29.5321 5.39474C29.6137 5.23084 29.7411 5.09394 29.8989 5.00049C30.0673 4.91027 30.2555 4.86305 30.4467 4.86305C30.6378 4.86305 30.8261 4.91027 30.9945 5.00049C31.1533 5.09262 31.281 5.22988 31.3613 5.39474C31.4515 5.58282 31.4955 5.78959 31.4899 5.99799C31.4954 6.20944 31.4514 6.41926 31.3613 6.61074C31.2789 6.77289 31.1516 6.90807 30.9945 7.00024C30.829 7.09836 30.6391 7.14777 30.4467 7.14274C30.2597 7.14511 30.0755 7.09755 29.9132 7.00499ZM30.7753 6.67724C30.8654 6.61067 30.9347 6.52011 30.9754 6.41599C31.0262 6.28426 31.0505 6.14383 31.0469 6.00274C31.0501 5.86322 31.0259 5.72442 30.9754 5.59424C30.9368 5.48762 30.865 5.39609 30.7706 5.33299C30.6812 5.27126 30.5744 5.23963 30.4657 5.24274C30.357 5.23895 30.2499 5.27064 30.1609 5.33299C30.0683 5.396 29.9969 5.48539 29.956 5.58949C29.9056 5.71967 29.8813 5.85847 29.8846 5.99799C29.8809 6.13908 29.9052 6.27951 29.956 6.41124C29.9968 6.51664 30.0681 6.60757 30.1609 6.67249C30.2524 6.73139 30.3591 6.76272 30.4681 6.76272C30.5771 6.76272 30.6838 6.73139 30.7753 6.67249V6.67724ZM32.2901 7.05724C32.1836 7.00617 32.0942 6.9253 32.0329 6.82449C31.9703 6.71983 31.9389 6.59955 31.9424 6.47774C31.9365 6.38713 31.953 6.29645 31.9903 6.21365C32.0277 6.13084 32.0848 6.05843 32.1568 6.00274C32.3346 5.88 32.5455 5.81376 32.7617 5.81274L33.5953 5.76049V6.07874L32.8189 6.12624C32.708 6.12775 32.6001 6.16251 32.5093 6.22599C32.4735 6.25089 32.4447 6.28445 32.4256 6.3235C32.4064 6.36255 32.3975 6.40582 32.3997 6.44924C32.3976 6.49332 32.4065 6.53725 32.4256 6.57705C32.4447 6.61685 32.4735 6.65128 32.5093 6.67724C32.5948 6.73483 32.6968 6.76317 32.7998 6.75799C32.8986 6.76009 32.9966 6.73894 33.0856 6.69624C33.1684 6.65656 33.2379 6.59388 33.2857 6.51574C33.3244 6.4443 33.3441 6.36417 33.3429 6.28299V5.62749C33.3469 5.57486 33.3392 5.52199 33.3203 5.4727C33.3013 5.42341 33.2716 5.37893 33.2333 5.34249C33.1419 5.26906 33.0266 5.23185 32.9094 5.23799C32.7981 5.23177 32.6877 5.26177 32.595 5.32349C32.5569 5.347 32.5241 5.37813 32.4987 5.41492C32.4733 5.45172 32.4558 5.49337 32.4473 5.53724H32.0186V5.51349C32.0265 5.38929 32.0713 5.27024 32.1472 5.17149C32.2257 5.06655 32.331 4.98453 32.4521 4.93399C32.6028 4.87098 32.7651 4.84024 32.9284 4.84374C33.0919 4.83966 33.2543 4.87043 33.4048 4.93399C33.5276 4.98847 33.6331 5.07555 33.7097 5.18574C33.7855 5.29948 33.8238 5.43399 33.8192 5.57049V7.08574H33.3429V6.75799C33.2996 6.83517 33.2432 6.90428 33.1762 6.96224C33.1057 7.01834 33.027 7.06321 32.9427 7.09524C32.8545 7.1283 32.7607 7.14442 32.6665 7.14274C32.536 7.14435 32.407 7.11504 32.2901 7.05724ZM34.7719 7.00499C34.6267 6.90902 34.5138 6.77163 34.448 6.61074C34.3691 6.418 34.3317 6.21083 34.3384 6.00274C34.3345 5.79486 34.3718 5.58826 34.448 5.39474C34.5167 5.2369 34.6291 5.10181 34.7719 5.00524C34.9121 4.90967 35.0785 4.85988 35.2483 4.86274C35.3918 4.86053 35.5331 4.89853 35.656 4.97242C35.779 5.04632 35.8787 5.15314 35.9437 5.28074V4.08849H36.3963V7.10474H35.9437V6.72949C35.8804 6.85743 35.7817 6.96471 35.6594 7.03875C35.5371 7.11278 35.3961 7.1505 35.253 7.14749C35.0817 7.15103 34.9135 7.10122 34.7719 7.00499ZM35.677 6.66299C35.77 6.59717 35.8426 6.50665 35.8866 6.40174C35.9366 6.27477 35.9609 6.13914 35.958 6.00274C35.9623 5.86731 35.9363 5.73263 35.8818 5.60849C35.8396 5.50391 35.7686 5.41335 35.677 5.34724C35.5898 5.28418 35.4846 5.25087 35.3769 5.25224C35.267 5.25094 35.1592 5.28237 35.0673 5.34249C34.9772 5.40906 34.9079 5.49962 34.8672 5.60374C34.8202 5.73144 34.7976 5.86676 34.8005 6.00274C34.7981 6.14023 34.8207 6.27702 34.8672 6.40649C34.9079 6.51061 34.9772 6.60117 35.0673 6.66774C35.1592 6.72786 35.267 6.75929 35.3769 6.75799C35.4878 6.76145 35.5967 6.72803 35.6865 6.66299H35.677ZM38.4303 7.00499C38.2714 6.91286 38.1437 6.7756 38.0635 6.61074C37.9727 6.42116 37.9286 6.21272 37.9349 6.00274C37.9298 5.79439 37.9738 5.58775 38.0635 5.39949C38.1464 5.23649 38.2735 5.09992 38.4303 5.00524C38.5987 4.91502 38.7869 4.8678 38.9781 4.8678C39.1693 4.8678 39.3575 4.91502 39.5259 5.00524C39.6847 5.09737 39.8124 5.23463 39.8927 5.39949C39.981 5.58623 40.0219 5.79177 40.0118 5.99799C40.0182 6.21004 39.9724 6.42044 39.8784 6.61074C39.7973 6.77225 39.6717 6.90736 39.5164 7.00024C39.3482 7.09384 39.1588 7.14297 38.9662 7.14297C38.7736 7.14297 38.5842 7.09384 38.416 7.00024L38.4303 7.00499ZM39.2877 6.67724C39.3777 6.61067 39.4471 6.52011 39.4878 6.41599C39.5386 6.28426 39.5629 6.14383 39.5592 6.00274C39.5625 5.86322 39.5382 5.72442 39.4878 5.59424C39.4485 5.49063 39.3787 5.40124 39.2877 5.33774C39.1965 5.27623 39.0882 5.24468 38.9781 5.24749C38.8694 5.24438 38.7626 5.27601 38.6732 5.33774C38.5832 5.40344 38.5124 5.49202 38.4684 5.59424C38.4179 5.72442 38.3937 5.86322 38.3969 6.00274C38.3933 6.14383 38.4176 6.28426 38.4684 6.41599C38.5106 6.52057 38.5816 6.61113 38.6732 6.67724C38.7651 6.73736 38.8729 6.76879 38.9828 6.76749C39.0913 6.76901 39.1977 6.73753 39.2877 6.67724ZM40.5596 4.90549H41.0121V5.23799C41.0716 5.12615 41.1606 5.03256 41.2693 4.96724C41.3971 4.89541 41.5419 4.85931 41.6885 4.86274C41.7924 4.85734 41.8962 4.87403 41.9931 4.9117C42.09 4.94938 42.1778 5.00717 42.2506 5.08124C42.3909 5.24825 42.4625 5.46217 42.4507 5.67974V7.10474H41.9743V5.76999C41.9834 5.63226 41.9428 5.49582 41.86 5.38524C41.8134 5.34033 41.7581 5.30537 41.6975 5.2825C41.6369 5.25963 41.5722 5.24933 41.5075 5.25224C41.4106 5.25029 41.315 5.27494 41.2312 5.32349C41.1529 5.37121 41.09 5.44048 41.0502 5.52299C41.0047 5.61614 40.9819 5.71865 40.9835 5.82224V7.10474H40.531L40.5596 4.90549ZM44.3323 7.00024C44.275 6.93591 44.2315 6.86059 44.2045 6.77891C44.1775 6.69724 44.1675 6.61092 44.1751 6.52524V5.26649H43.8559V4.90549H44.1751V4.33549H44.6514V4.90549H45.0658V5.26649H44.6514V6.49674C44.6461 6.53764 44.6497 6.5792 44.662 6.61856C44.6744 6.65793 44.6951 6.69415 44.7229 6.72474C44.7864 6.77032 44.8639 6.79218 44.942 6.78649H45.0658V7.13799H44.8324C44.6544 7.15527 44.4762 7.1062 44.3323 7.00024ZM45.5612 4.08849H46.0138V5.26649C46.0674 5.143 46.1592 5.03983 46.2758 4.97199C46.4041 4.89698 46.551 4.85915 46.6997 4.86274C46.8439 4.85978 46.9859 4.89766 47.1094 4.97199C47.2283 5.04611 47.3227 5.15348 47.3809 5.28074C47.4517 5.42888 47.486 5.59172 47.4809 5.75574V7.11424H47.0046V5.83174C47.0132 5.67863 46.9677 5.52735 46.876 5.40424C46.8289 5.35346 46.7712 5.31354 46.707 5.28729C46.6429 5.26103 46.5737 5.24907 46.5044 5.25224C46.4083 5.24966 46.3136 5.27616 46.2329 5.32824C46.1545 5.37596 46.0917 5.44523 46.0519 5.52774C46.0065 5.62262 45.9837 5.72664 45.9852 5.83174V7.10474H45.5327L45.5612 4.08849ZM48.4956 7.00499C48.3383 6.91373 48.2135 6.77594 48.1383 6.61074C48.0485 6.42421 48.0044 6.21908 48.0097 6.01224C48.005 5.80545 48.049 5.60044 48.1383 5.41374C48.2146 5.24825 48.3369 5.1081 48.4908 5.00999C48.6535 4.91798 48.8373 4.86961 49.0243 4.86961C49.2113 4.86961 49.3951 4.91798 49.5578 5.00999C49.7088 5.10182 49.8296 5.23552 49.9055 5.39474C49.9884 5.57654 50.0291 5.77461 50.0246 5.97424V6.13099H48.2383V5.80799H49.8055L49.5816 6.10724V5.93149C49.5848 5.79969 49.5605 5.66866 49.5102 5.54674C49.4715 5.45171 49.403 5.37172 49.3149 5.31874C49.2291 5.26605 49.1297 5.23963 49.0291 5.24274C48.9278 5.24349 48.8289 5.2735 48.7443 5.32914C48.6598 5.38478 48.5932 5.46366 48.5527 5.55624C48.5017 5.67463 48.4774 5.80271 48.4813 5.93149V6.10724C48.4777 6.23293 48.5021 6.35784 48.5527 6.47299C48.5984 6.5678 48.6692 6.6483 48.7575 6.70574C48.8532 6.74839 48.958 6.76636 49.0624 6.75799C49.1423 6.75937 49.2216 6.74484 49.2958 6.71524C49.3607 6.69259 49.4194 6.65518 49.4673 6.60599C49.5121 6.56467 49.5449 6.5122 49.5626 6.45399H50.0151V6.47774C49.9791 6.66829 49.8718 6.83807 49.715 6.95274C49.6317 7.01942 49.5363 7.06942 49.434 7.09999C49.3158 7.13966 49.1918 7.15893 49.0672 7.15699C48.8658 7.1635 48.667 7.11062 48.4956 7.00499Z" fill="white"/>
</g>
<defs>
<clipPath id="clip0_994_4214">
<rect width="57" height="19" fill="white" transform="translate(0 0.108398)"/>
</clipPath>
</defs>
</svg>
