<svg viewBox="0 0 72 14" fill="none" xmlns="http://www.w3.org/2000/svg">
<g opacity="0.5" clip-path="url(#clip0_1918_15523)">
<path fill-rule="evenodd" clip-rule="evenodd" d="M18.2608 13.3501C19.9839 13.3501 21.4385 12.7412 22.6245 11.5234C23.8217 10.294 24.4203 8.78621 24.4203 7.0001C24.4203 5.21397 23.8217 3.71203 22.6245 2.49421C21.4385 1.2648 19.9839 0.650101 18.2608 0.650101C16.5377 0.650101 15.0775 1.2648 13.8802 2.49421C12.6942 3.71203 12.1011 5.21397 12.1011 7.0001C12.1011 8.78621 12.6942 10.294 13.8802 11.5234C15.0775 12.7412 16.5377 13.3501 18.2608 13.3501ZM18.2608 10.3056C17.3544 10.3056 16.5992 9.99821 15.995 9.38353C15.3908 8.75723 15.0886 7.96274 15.0886 7.0001C15.0886 6.03744 15.3908 5.24877 15.995 4.63409C16.5992 4.00779 17.3544 3.69463 18.2608 3.69463C19.1671 3.69463 19.9224 4.00779 20.5267 4.63409C21.1307 5.24877 21.4328 6.03744 21.4328 7.0001C21.4328 7.96274 21.1307 8.75723 20.5267 9.38353C19.9224 9.99821 19.1671 10.3056 18.2608 10.3056ZM8.84501 2.66826C7.75966 1.49685 6.40576 0.911141 4.78334 0.911141H0V13.0892H4.78334C6.40576 13.0892 7.75966 12.5093 8.84501 11.3495C9.94155 10.1781 10.4898 8.7283 10.4898 7.00019C10.4898 5.27205 9.94155 3.82808 8.84501 2.66826ZM6.78061 9.24444C6.26592 9.80115 5.60015 10.0795 4.78334 10.0795H3.0882V3.92088H4.78334C5.60015 3.92088 6.26592 4.20502 6.78061 4.77335C7.29529 5.33005 7.55266 6.07232 7.55266 7.00019C7.55266 7.92803 7.29529 8.6761 6.78061 9.24444ZM38.4686 0.911141V13.0892H35.4811V6.53045L32.6279 11.4191H32.3258L29.4891 6.54785V13.0892H26.4849V0.911141H29.4891L32.4768 6.11292L35.4811 0.911141H38.4686ZM47.9445 2.40936L45.2789 0.973246L39.8608 11.779L42.5266 13.2152L47.9445 2.40936ZM54.5062 0.911141H57.4937V13.0892H55.1776L51.0321 6.96539V13.0892H48.0276V0.911141H50.3607L54.5062 7.03498V0.911141ZM65.7312 13.3501C67.4541 13.3501 68.909 12.7412 70.0949 11.5234C71.2923 10.294 71.8909 8.78621 71.8909 7.0001C71.8909 5.21397 71.2923 3.71203 70.0949 2.49421C68.909 1.2648 67.4541 0.650101 65.7312 0.650101C64.0082 0.650101 62.548 1.2648 61.3507 2.49421C60.1648 3.71203 59.5716 5.21397 59.5716 7.0001C59.5716 8.78621 60.1648 10.294 61.3507 11.5234C62.548 12.7412 64.0082 13.3501 65.7312 13.3501ZM65.7312 10.3056C64.8248 10.3056 64.0695 9.99821 63.4655 9.38353C62.8613 8.75723 62.5591 7.96274 62.5591 7.0001C62.5591 6.03744 62.8613 5.24877 63.4655 4.63409C64.0695 4.00779 64.8248 3.69463 65.7312 3.69463C66.6375 3.69463 67.3928 4.00779 67.997 4.63409C68.6013 5.24877 68.9034 6.03744 68.9034 7.0001C68.9034 7.96274 68.6013 8.75723 67.997 9.38353C67.3928 9.99821 66.6375 10.3056 65.7312 10.3056Z" fill="white"/>
</g>
<defs>
<clipPath id="clip0_1918_15523">
<rect width="72" height="12.7" fill="white" transform="translate(0 0.650002)"/>
</clipPath>
</defs>
</svg>
