<svg viewBox="0 0 32 32" fill="white" xmlns="http://www.w3.org/2000/svg">
<path d="M10.1104 24.6209C9.72129 25.0136 9.08652 25.0136 8.69739 24.6209C8.31335 24.2332 8.31335 23.6086 8.69739 23.2209L16.0039 15.8461L23.3104 23.2209C23.6945 23.6086 23.6945 24.2332 23.3104 24.6209C22.9213 25.0136 22.2865 25.0136 21.8974 24.6209L16.0039 18.6723L10.1104 24.6209ZM10.1104 16.1087C9.72129 16.5015 9.08652 16.5015 8.69739 16.1087C8.31335 15.7211 8.31335 15.0964 8.6974 14.7088L16.0039 7.33398L23.3104 14.7088C23.6945 15.0964 23.6945 15.7211 23.3104 16.1087C22.9213 16.5015 22.2865 16.5015 21.8974 16.1087L16.0039 10.1602L10.1104 16.1087Z" />
</svg>
