<svg  viewBox="0 0 64 20" fill="none" xmlns="http://www.w3.org/2000/svg">
<g id="google-play.f5aba5ea 2" clip-path="url(#clip0_994_4218)">
<path id="Vector" d="M61.6296 0.108398H2.37037C1.06125 0.108398 0 1.17172 0 2.4834V16.7334C0 18.0451 1.06125 19.1084 2.37037 19.1084H61.6296C62.9387 19.1084 64 18.0451 64 16.7334V2.4834C64 1.17172 62.9387 0.108398 61.6296 0.108398Z" fill="black"/>
<path id="Vector_2" d="M61.6296 0.488398C62.1577 0.488398 62.6642 0.698585 63.0376 1.07272C63.411 1.44686 63.6207 1.95429 63.6207 2.4834V16.7334C63.6207 17.2625 63.411 17.7699 63.0376 18.1441C62.6642 18.5182 62.1577 18.7284 61.6296 18.7284H2.37037C1.84229 18.7284 1.33585 18.5182 0.962442 18.1441C0.589036 17.7699 0.379259 17.2625 0.379259 16.7334V2.4834C0.379259 1.95429 0.589036 1.44686 0.962442 1.07272C1.33585 0.698585 1.84229 0.488398 2.37037 0.488398H61.6296ZM61.6296 0.108398H2.37037C1.74171 0.108398 1.1388 0.358621 0.694265 0.80402C0.249735 1.24942 0 1.85351 0 2.4834L0 16.7334C0 17.3633 0.249735 17.9674 0.694265 18.4128C1.1388 18.8582 1.74171 19.1084 2.37037 19.1084H61.6296C62.2583 19.1084 62.8612 18.8582 63.3057 18.4128C63.7503 17.9674 64 17.3633 64 16.7334V2.4834C64 1.85351 63.7503 1.24942 63.3057 0.80402C62.8612 0.358621 62.2583 0.108398 61.6296 0.108398Z" fill="#A6A6A6"/>
<path id="Vector_3" d="M32.3036 10.439C31.9041 10.4399 31.5139 10.5595 31.1824 10.7826C30.8508 11.0058 30.5927 11.3224 30.4407 11.6925C30.2887 12.0626 30.2496 12.4696 30.3285 12.8619C30.4073 13.2542 30.6005 13.6143 30.8836 13.8967C31.1667 14.179 31.527 14.3709 31.919 14.448C32.3109 14.5252 32.7169 14.4841 33.0855 14.3301C33.4542 14.1761 33.769 13.916 33.9901 13.5827C34.2113 13.2494 34.3288 12.8579 34.3279 12.4577C34.3317 12.1907 34.2819 11.9257 34.1814 11.6784C34.081 11.4311 33.9318 11.2066 33.743 11.0182C33.5541 10.8299 33.3293 10.6815 33.082 10.582C32.8347 10.4825 32.57 10.4339 32.3036 10.439ZM32.3036 13.6832C32.0587 13.7004 31.8144 13.6433 31.6024 13.5195C31.3903 13.3957 31.2204 13.2109 31.1146 12.989C31.0088 12.7671 30.9721 12.5185 31.0092 12.2754C31.0463 12.0323 31.1555 11.8061 31.3227 11.626C31.4898 11.446 31.7072 11.3205 31.9465 11.2658C32.1858 11.2112 32.4359 11.23 32.6644 11.3197C32.8929 11.4094 33.0892 11.5659 33.2278 11.7688C33.3663 11.9718 33.4407 12.2118 33.4413 12.4577C33.449 12.6135 33.4254 12.7693 33.372 12.9158C33.3186 13.0624 33.2364 13.1967 33.1304 13.3109C33.0244 13.4251 32.8966 13.5169 32.7546 13.5809C32.6126 13.6448 32.4592 13.6796 32.3036 13.6832ZM27.8852 10.439C27.4858 10.4399 27.0956 10.5595 26.764 10.7826C26.4324 11.0058 26.1743 11.3224 26.0223 11.6925C25.8703 12.0626 25.8313 12.4696 25.9101 12.8619C25.989 13.2542 26.1821 13.6143 26.4652 13.8967C26.7483 14.179 27.1086 14.3709 27.5006 14.448C27.8925 14.5252 28.2985 14.4841 28.6672 14.3301C29.0358 14.1761 29.3506 13.916 29.5718 13.5827C29.7929 13.2494 29.9104 12.8579 29.9095 12.4577C29.9133 12.1907 29.8636 11.9257 29.7631 11.6784C29.6626 11.4311 29.5135 11.2066 29.3246 11.0182C29.1357 10.8299 28.9109 10.6815 28.6637 10.582C28.4164 10.4825 28.1516 10.4339 27.8852 10.439ZM27.8852 13.6832C27.6404 13.7004 27.3961 13.6433 27.184 13.5195C26.972 13.3957 26.802 13.2109 26.6962 12.989C26.5904 12.7671 26.5537 12.5185 26.5908 12.2754C26.6279 12.0323 26.7372 11.8061 26.9043 11.626C27.0715 11.446 27.2888 11.3205 27.5281 11.2658C27.7674 11.2112 28.0175 11.23 28.246 11.3197C28.4746 11.4094 28.6708 11.5659 28.8094 11.7688C28.948 11.9718 29.0224 12.2118 29.023 12.4577C29.0306 12.6135 29.007 12.7693 28.9536 12.9158C28.9002 13.0624 28.8181 13.1967 28.712 13.3109C28.606 13.4251 28.4782 13.5169 28.3362 13.5809C28.1942 13.6448 28.0408 13.6796 27.8852 13.6832ZM22.6324 11.0612V11.9162H24.6804C24.6483 12.3189 24.4813 12.6989 24.2064 12.9945C24.0009 13.2042 23.7538 13.3684 23.4811 13.4764C23.2083 13.5844 22.916 13.6338 22.623 13.6215C22.0194 13.6215 21.4407 13.3813 21.0139 12.9537C20.5872 12.5261 20.3474 11.9462 20.3474 11.3415C20.3474 10.7368 20.5872 10.1569 21.0139 9.72927C21.4407 9.30169 22.0194 9.06148 22.623 9.06148C23.2015 9.05286 23.7602 9.27301 24.1779 9.67423L24.78 9.07098C24.4974 8.79097 24.162 8.57027 23.7932 8.42183C23.4244 8.27338 23.0298 8.20017 22.6324 8.20648C22.211 8.19004 21.7906 8.25902 21.3964 8.40929C21.0021 8.55955 20.6423 8.788 20.3383 9.08096C20.0343 9.37391 19.7925 9.72533 19.6273 10.1142C19.4621 10.503 19.377 10.9213 19.377 11.3439C19.377 11.7664 19.4621 12.1847 19.6273 12.5735C19.7925 12.9624 20.0343 13.3138 20.3383 13.6067C20.6423 13.8997 21.0021 14.1282 21.3964 14.2784C21.7906 14.4287 22.211 14.4977 22.6324 14.4812C23.038 14.4975 23.4423 14.4276 23.819 14.2761C24.1957 14.1247 24.5361 13.8951 24.8179 13.6025C25.3158 13.0545 25.581 12.3338 25.5575 11.5932C25.5592 11.415 25.5449 11.2369 25.5148 11.0612H22.6324ZM44.1127 11.7262C43.9891 11.3618 43.7579 11.0435 43.4498 10.8137C43.1416 10.5838 42.771 10.4531 42.3871 10.439C42.1278 10.4385 41.8711 10.4913 41.633 10.5941C41.3948 10.6969 41.1803 10.8476 41.0025 11.0368C40.8248 11.226 40.6877 11.4497 40.5997 11.6941C40.5117 11.9385 40.4746 12.1984 40.4908 12.4577C40.4868 12.8913 40.6228 13.3146 40.8787 13.6644C41.1345 14.0141 41.4964 14.2715 41.9103 14.3982C42.3242 14.5248 42.7679 14.5139 43.1751 14.3671C43.5823 14.2203 43.9312 13.9454 44.1696 13.5835L43.4822 13.1085C43.3797 13.2796 43.2344 13.4209 43.0606 13.5184C42.8868 13.6159 42.6906 13.6662 42.4914 13.6642C42.2859 13.6727 42.0827 13.6188 41.9084 13.5094C41.7341 13.4 41.5969 13.2404 41.5148 13.0515L44.2123 11.9352L44.1127 11.7262ZM41.3631 12.4007C41.3535 12.2532 41.3734 12.1052 41.4216 11.9654C41.4697 11.8257 41.5453 11.697 41.6437 11.5868C41.7422 11.4767 41.8616 11.3873 41.9949 11.324C42.1283 11.2607 42.2729 11.2246 42.4203 11.218C42.573 11.2086 42.7251 11.2447 42.8575 11.3216C42.9899 11.3985 43.0968 11.5128 43.1646 11.6502L41.3631 12.4007ZM39.1729 14.3577H40.0594V8.42023H39.1729V14.3577ZM37.7222 10.8902H37.689C37.5566 10.7391 37.3932 10.6184 37.2099 10.5365C37.0266 10.4545 36.8278 10.4131 36.6271 10.4152C36.109 10.4404 35.6205 10.6643 35.2627 11.0406C34.9049 11.4169 34.7054 11.9167 34.7054 12.4364C34.7054 12.956 34.9049 13.4558 35.2627 13.8321C35.6205 14.2084 36.109 14.4323 36.6271 14.4575C36.8281 14.4615 37.0275 14.421 37.2111 14.3389C37.3946 14.2568 37.5578 14.1351 37.689 13.9825H37.7222V14.2722C37.7222 15.0465 37.3098 15.4597 36.6461 15.4597C36.4244 15.4548 36.2091 15.3841 36.0276 15.2564C35.8461 15.1286 35.7066 14.9498 35.6268 14.7425L34.8588 15.0607C35.0008 15.418 35.2477 15.7238 35.5668 15.9375C35.8859 16.1512 36.2623 16.2629 36.6461 16.2577C37.6843 16.2577 38.5424 15.645 38.5424 14.1535V10.5577H37.7222V10.8902ZM36.703 13.6832C36.3924 13.6638 36.1008 13.5265 35.8877 13.2993C35.6746 13.072 35.556 12.7719 35.556 12.4601C35.556 12.1483 35.6746 11.8482 35.8877 11.6209C36.1008 11.3937 36.3924 11.2564 36.703 11.237C36.8548 11.2435 37.0037 11.2806 37.1409 11.3461C37.2782 11.4115 37.4008 11.5039 37.5017 11.6178C37.6025 11.7317 37.6795 11.8647 37.728 12.009C37.7764 12.1533 37.7954 12.3059 37.7838 12.4577C37.7968 12.6101 37.7787 12.7634 37.7308 12.9086C37.6829 13.0537 37.6061 13.1876 37.5051 13.3022C37.404 13.4167 37.2809 13.5096 37.143 13.5751C37.0051 13.6406 36.8554 13.6774 36.703 13.6832ZM48.2656 8.42023H46.1418V14.3577H47.0283V12.1062H48.2656C48.5183 12.1244 48.772 12.0903 49.0109 12.0059C49.2498 11.9215 49.4688 11.7887 49.6542 11.6158C49.8396 11.4429 49.9875 11.2335 50.0886 11.0008C50.1897 10.7681 50.2419 10.517 50.2419 10.2632C50.2419 10.0094 50.1897 9.75834 50.0886 9.52563C49.9875 9.29293 49.8396 9.08359 49.6542 8.91067C49.4688 8.73775 49.2498 8.60496 49.0109 8.52058C48.772 8.4362 48.5183 8.40204 48.2656 8.42023ZM48.2656 11.2702H47.0283V9.24673H48.2846C48.5537 9.24673 48.8117 9.35382 49.002 9.54445C49.1922 9.73508 49.2991 9.99363 49.2991 10.2632C49.2991 10.5328 49.1922 10.7914 49.002 10.982C48.8117 11.1726 48.5537 11.2797 48.2846 11.2797L48.2656 11.2702ZM53.7364 10.42C53.4136 10.4 53.092 10.4753 52.8114 10.6366C52.5308 10.7978 52.3036 11.0379 52.1578 11.3272L52.94 11.655C53.019 11.5122 53.1377 11.3954 53.2815 11.3187C53.4254 11.242 53.5883 11.2087 53.7507 11.2227C53.8632 11.2096 53.9772 11.219 54.0861 11.2504C54.195 11.2819 54.2965 11.3348 54.3848 11.4059C54.473 11.4771 54.5462 11.5652 54.6002 11.6651C54.6541 11.7649 54.6876 11.8745 54.6988 11.9875V12.0445C54.4137 11.8943 54.0964 11.8161 53.7744 11.8165C52.9305 11.8165 52.0677 12.2915 52.0677 13.156C52.076 13.3397 52.1212 13.5199 52.2004 13.6859C52.2796 13.8518 52.3913 14.0001 52.5288 14.1219C52.6663 14.2438 52.8269 14.3367 53.001 14.3952C53.175 14.4536 53.359 14.4764 53.5421 14.4622C53.7645 14.4746 53.9863 14.4274 54.1845 14.3256C54.3828 14.2237 54.5505 14.0709 54.6704 13.8827H54.6988V14.3577H55.5521V12.073C55.5521 11.0327 54.7652 10.4295 53.7554 10.4295L53.7364 10.42ZM53.6274 13.6737C53.3382 13.6737 52.9353 13.5265 52.9353 13.1702C52.9353 12.6952 53.4378 12.5337 53.8834 12.5337C54.165 12.5268 54.4434 12.5957 54.6893 12.7332C54.6596 12.9912 54.5375 13.2296 54.3457 13.4043C54.1539 13.5789 53.9055 13.6781 53.6464 13.6832L53.6274 13.6737ZM58.6621 10.5577L57.6476 13.1322H57.6191L56.5667 10.5577H55.6185L57.1972 14.1582L56.2964 16.158H57.2209L59.6481 10.5577H58.6621ZM50.6976 14.3577H51.5794V8.42023H50.6976V14.3577Z" fill="white"/>
<path id="Vector_4" d="M4.94946 3.68852C4.79324 3.87359 4.71353 4.11149 4.72665 4.35352V14.8605C4.71052 15.103 4.7906 15.342 4.94946 15.5255L4.98265 15.5635L10.8564 9.67827V9.53577L4.98265 3.65527L4.94946 3.68852Z" fill="url(#paint0_linear_994_4218)"/>
<path id="Vector_5" d="M12.8011 11.6412L10.8574 9.67945V9.53695L12.8011 7.5752L12.8438 7.6037L15.1715 8.9242C15.8352 9.29945 15.8352 9.91695 15.1715 10.2969L12.8533 11.6174L12.8011 11.6412Z" fill="url(#paint1_linear_994_4218)"/>
<path id="Vector_6" d="M12.8587 11.6129L10.8581 9.6084L4.95117 15.5269C5.08513 15.6464 5.2566 15.7151 5.43584 15.7212C5.61508 15.7273 5.79079 15.6703 5.93251 15.5601L12.8587 11.6129Z" fill="url(#paint2_linear_994_4218)"/>
<path id="Vector_7" d="M12.8587 7.60372L5.93251 3.66122C5.79172 3.54956 5.61614 3.4912 5.43666 3.49642C5.25717 3.50163 5.08527 3.57008 4.95117 3.68973L10.8581 9.60822L12.8587 7.60372Z" fill="url(#paint3_linear_994_4218)"/>
<path id="Vector_8" opacity="0.2" d="M12.8018 11.5693L5.93251 15.4881C5.79595 15.5914 5.62952 15.6472 5.45843 15.6472C5.28734 15.6472 5.12092 15.5914 4.98436 15.4881L4.95117 15.5213L4.98436 15.5593C5.12092 15.6626 5.28734 15.7185 5.45843 15.7185C5.62952 15.7185 5.79595 15.6626 5.93251 15.5593L12.8587 11.6121L12.8018 11.5693Z" fill="black"/>
<path id="Vector_9" opacity="0.12" d="M4.94959 15.4604C4.79732 15.272 4.72269 15.0324 4.741 14.7906V14.8619C4.72487 15.1043 4.80495 15.3433 4.96382 15.5269L4.997 15.4936L4.94959 15.4604ZM15.1706 10.2259L12.8003 11.5701L12.8429 11.6129L15.1706 10.2924C15.308 10.2342 15.4272 10.1399 15.5157 10.0196C15.6041 9.89919 15.6585 9.75715 15.6731 9.6084C15.6435 9.74357 15.5826 9.86987 15.4953 9.97713C15.408 10.0844 15.2968 10.1696 15.1706 10.2259Z" fill="black"/>
<path id="Vector_10" opacity="0.25" d="M5.93071 3.72816L15.1704 8.99116C15.2966 9.04746 15.4078 9.13267 15.4951 9.23993C15.5824 9.34718 15.6433 9.47349 15.6729 9.60866C15.6583 9.45991 15.6039 9.31787 15.5154 9.1975C15.427 9.07712 15.3078 8.98287 15.1704 8.92466L5.93071 3.66166C5.27175 3.28166 4.72656 3.59516 4.72656 4.35516V4.42641C4.74078 3.66641 5.27175 3.35291 5.93071 3.72816Z" fill="white"/>
<path id="Vector_11" d="M20.0312 6.34552V3.28652H20.9794C21.1854 3.27782 21.3911 3.31077 21.5841 3.3834C21.7771 3.45603 21.9536 3.56685 22.103 3.70927C22.2461 3.85452 22.3578 4.02775 22.4312 4.21816C22.5047 4.40857 22.5381 4.61208 22.5296 4.81602C22.5388 5.02075 22.5056 5.22517 22.4322 5.41644C22.3588 5.60772 22.2467 5.78172 22.103 5.92752C21.9534 6.06931 21.7767 6.17941 21.5837 6.25124C21.3906 6.32306 21.1851 6.35513 20.9794 6.34552H20.0312ZM20.4247 3.66177V5.97027H20.9652C21.1191 5.9798 21.2733 5.95775 21.4184 5.90548C21.5635 5.85321 21.6964 5.77181 21.809 5.66627C21.9149 5.55264 21.9967 5.41876 22.0497 5.27265C22.1026 5.12655 22.1256 4.97123 22.1172 4.81602C22.1252 4.66157 22.1021 4.50708 22.0491 4.3618C21.9962 4.21651 21.9145 4.08343 21.809 3.97052C21.6974 3.86473 21.5654 3.78281 21.4211 3.72973C21.2769 3.67665 21.1234 3.65353 20.9699 3.66177H20.4247ZM22.7287 5.30052C22.7234 5.15433 22.7471 5.00854 22.7983 4.87156C22.8496 4.73459 22.9274 4.60916 23.0274 4.50252C23.127 4.39851 23.2472 4.31647 23.3802 4.26167C23.5133 4.20687 23.6563 4.18051 23.8001 4.18427C23.9434 4.17907 24.0862 4.20479 24.2187 4.2597C24.3512 4.31461 24.4704 4.39742 24.5681 4.50252C24.766 4.72101 24.8756 5.00548 24.8756 5.30052C24.8756 5.59556 24.766 5.88003 24.5681 6.09852C24.4704 6.20362 24.3512 6.28644 24.2187 6.34135C24.0862 6.39626 23.9434 6.42198 23.8001 6.41677C23.6563 6.42054 23.5133 6.39417 23.3802 6.33937C23.2472 6.28457 23.127 6.20254 23.0274 6.09852C22.9274 5.99189 22.8496 5.86646 22.7983 5.72948C22.7471 5.59251 22.7234 5.44671 22.7287 5.30052ZM23.1175 5.30052C23.1089 5.50185 23.1806 5.69834 23.3166 5.84677C23.3759 5.91374 23.449 5.96708 23.5308 6.00315C23.6127 6.03922 23.7013 6.05717 23.7907 6.05577C23.8799 6.05625 23.9682 6.03789 24.0499 6.00188C24.1316 5.96587 24.2048 5.91302 24.2647 5.84677C24.3977 5.69679 24.4674 5.50096 24.4591 5.30052C24.4671 5.10155 24.3974 4.90728 24.2647 4.75902C24.2048 4.69238 24.1318 4.63895 24.0501 4.60215C23.9685 4.56535 23.8802 4.54598 23.7907 4.54527C23.7011 4.54539 23.6125 4.56449 23.5308 4.60133C23.4491 4.63817 23.3761 4.69191 23.3166 4.75902C23.2492 4.8315 23.1968 4.91672 23.1626 5.00969C23.1284 5.10267 23.1131 5.20154 23.1175 5.30052ZM28.1521 4.25077L27.4979 6.34552H27.0997L26.5498 4.74002L26.033 6.34552H25.6348L24.9616 4.25077H25.3693L25.8434 5.83252L26.3601 4.25077H26.7678L27.2846 5.83252L27.7587 4.25077H28.1521ZM28.4081 4.25077H28.7827V4.54527C28.8488 4.43585 28.944 4.34703 29.0576 4.28877C29.2121 4.20385 29.3891 4.1692 29.5641 4.18962C29.7391 4.21005 29.9034 4.28455 30.0342 4.40277C30.1821 4.57686 30.2569 4.8016 30.2428 5.02977V6.34552H29.8683V5.05827C29.8741 4.98901 29.8648 4.91931 29.8408 4.85408C29.8168 4.78885 29.7789 4.72969 29.7296 4.68077C29.6803 4.63185 29.6209 4.59436 29.5556 4.57094C29.4903 4.54753 29.4206 4.53877 29.3515 4.54527C29.2756 4.54301 29.2001 4.55909 29.1317 4.59216C29.0632 4.62523 29.0036 4.67431 28.9581 4.73527C28.8475 4.8679 28.7916 5.03776 28.8016 5.21027V6.36927H28.4081V4.25077ZM31.1151 3.28652V6.34552H30.7216V3.28652H31.1151ZM31.4517 5.30052C31.4474 5.15324 31.473 5.00662 31.5267 4.86948C31.5805 4.73235 31.6614 4.60752 31.7646 4.50252C31.9696 4.29918 32.2465 4.18512 32.535 4.18512C32.8234 4.18512 33.1003 4.29918 33.3053 4.50252C33.5032 4.72101 33.6128 5.00548 33.6128 5.30052C33.6128 5.59556 33.5032 5.88003 33.3053 6.09852C33.1003 6.30186 32.8234 6.41592 32.535 6.41592C32.2465 6.41592 31.9696 6.30186 31.7646 6.09852C31.6614 5.99352 31.5805 5.8687 31.5267 5.73156C31.473 5.59442 31.4474 5.4478 31.4517 5.30052ZM31.8452 5.30052C31.8369 5.50096 31.9066 5.69679 32.0395 5.84677C32.0995 5.91302 32.1727 5.96587 32.2544 6.00188C32.336 6.03789 32.4244 6.05625 32.5136 6.05577C32.603 6.05717 32.6916 6.03922 32.7734 6.00315C32.8553 5.96708 32.9283 5.91374 32.9877 5.84677C33.1237 5.69834 33.1953 5.50185 33.1868 5.30052C33.1912 5.20154 33.1758 5.10267 33.1416 5.00969C33.1075 4.91672 33.0551 4.8315 32.9877 4.75902C32.9282 4.69191 32.8552 4.63817 32.7735 4.60133C32.6918 4.56449 32.6032 4.54539 32.5136 4.54527C32.4241 4.54598 32.3358 4.56535 32.2541 4.60215C32.1725 4.63895 32.0994 4.69238 32.0395 4.75902C31.9069 4.90728 31.8371 5.10155 31.8452 5.30052ZM34.756 4.18427C35.0053 4.16874 35.2506 4.25238 35.4387 4.41702C35.525 4.49909 35.5925 4.59888 35.6367 4.70957C35.6809 4.82026 35.7007 4.93921 35.6947 5.05827V6.34552H35.3154V6.05577C35.2482 6.16766 35.1528 6.25989 35.0388 6.32324C34.9248 6.3866 34.7962 6.41885 34.6659 6.41677C34.4547 6.42195 34.2489 6.34927 34.0875 6.21252C34.0132 6.14969 33.9538 6.07104 33.9136 5.9823C33.8734 5.89356 33.8535 5.79695 33.8553 5.69952C33.8515 5.59968 33.8719 5.5004 33.9149 5.41022C33.9578 5.32004 34.0219 5.24165 34.1018 5.18177C34.2912 5.04381 34.5221 4.97507 34.756 4.98702C34.9551 4.97892 35.1528 5.02313 35.3296 5.11527V5.02502C35.3308 4.95876 35.3168 4.89311 35.2889 4.83304C35.261 4.77296 35.2198 4.72004 35.1684 4.67827C35.0645 4.58457 34.929 4.53367 34.7892 4.53577C34.686 4.53304 34.5838 4.55695 34.4925 4.6052C34.4012 4.65344 34.3237 4.72441 34.2677 4.81127L33.9216 4.59277C34.0159 4.46064 34.1416 4.35411 34.2872 4.28279C34.4329 4.21148 34.594 4.17762 34.756 4.18427ZM34.2487 5.70427C34.2478 5.75421 34.2589 5.80364 34.2812 5.84832C34.3035 5.89299 34.3363 5.93158 34.3767 5.96077C34.4627 6.02988 34.57 6.06683 34.6801 6.06527C34.7622 6.06537 34.8435 6.04904 34.9192 6.01723C34.995 5.98542 35.0636 5.93877 35.121 5.88002C35.183 5.82658 35.2325 5.76018 35.2661 5.6855C35.2997 5.61082 35.3165 5.52967 35.3154 5.44777C35.1659 5.3433 34.9853 5.29303 34.8034 5.30527C34.662 5.30072 34.5228 5.34058 34.4052 5.41927C34.3575 5.45003 34.3183 5.49219 34.291 5.54194C34.2637 5.5917 34.2491 5.64749 34.2487 5.70427ZM36.9794 6.41677C36.8456 6.41717 36.7133 6.38801 36.5921 6.33136C36.4708 6.27471 36.3635 6.19197 36.2778 6.08902C36.0834 5.87313 35.9783 5.59122 35.9838 5.30052C35.979 5.00852 36.0839 4.72537 36.2778 4.50727C36.3656 4.40713 36.4734 4.32662 36.5943 4.27097C36.7152 4.21532 36.8464 4.18578 36.9794 4.18427C37.1261 4.18242 37.271 4.21667 37.4013 4.28402C37.5204 4.34202 37.6206 4.4326 37.6905 4.54527V3.30077H38.084V6.35977H37.7095V6.07002C37.6383 6.18158 37.5384 6.27183 37.4203 6.33127C37.283 6.39681 37.1312 6.42623 36.9794 6.41677ZM37.0458 6.05577C37.1354 6.05882 37.2245 6.04161 37.3066 6.00543C37.3887 5.96925 37.4615 5.91502 37.5198 5.84677C37.6425 5.69214 37.7093 5.50043 37.7093 5.3029C37.7093 5.10536 37.6425 4.91365 37.5198 4.75902C37.4603 4.69208 37.3872 4.63852 37.3055 4.60184C37.2238 4.56516 37.1353 4.54621 37.0458 4.54621C36.9562 4.54621 36.8677 4.56516 36.786 4.60184C36.7043 4.63852 36.6313 4.69208 36.5717 4.75902C36.4403 4.90805 36.3708 5.10178 36.3773 5.30052C36.3693 5.49949 36.439 5.69376 36.5717 5.84202C36.6312 5.91162 36.7055 5.96695 36.7892 6.00394C36.8729 6.04093 36.9638 6.05864 37.0553 6.05577H37.0458ZM39.3924 5.30052C39.3869 5.15391 39.411 5.00769 39.4631 4.87059C39.5152 4.73349 39.5944 4.60831 39.6958 4.50252C39.9009 4.29918 40.1777 4.18512 40.4662 4.18512C40.7547 4.18512 41.0315 4.29918 41.2366 4.50252C41.4325 4.72198 41.5408 5.00609 41.5408 5.30052C41.5408 5.59496 41.4325 5.87906 41.2366 6.09852C41.0315 6.30186 40.7547 6.41592 40.4662 6.41592C40.1777 6.41592 39.9009 6.30186 39.6958 6.09852C39.5944 5.99274 39.5152 5.86756 39.4631 5.73045C39.411 5.59335 39.3869 5.44713 39.3924 5.30052ZM39.7859 5.30052C39.7808 5.39991 39.7953 5.49934 39.8287 5.59308C39.862 5.68683 39.9136 5.77304 39.9803 5.84677C40.0402 5.91302 40.1134 5.96587 40.1951 6.00188C40.2768 6.03789 40.3651 6.05625 40.4544 6.05577C40.5437 6.05686 40.6322 6.03877 40.714 6.00272C40.7958 5.96667 40.8689 5.9135 40.9284 5.84677C41.0645 5.69834 41.1361 5.50185 41.1275 5.30052C41.1319 5.20154 41.1166 5.10267 41.0824 5.00969C41.0482 4.91672 40.9959 4.8315 40.9284 4.75902C40.8689 4.69191 40.7959 4.63817 40.7142 4.60133C40.6325 4.56449 40.544 4.54539 40.4544 4.54527C40.3649 4.54598 40.2765 4.56535 40.1949 4.60215C40.1133 4.63895 40.0402 4.69238 39.9803 4.75902C39.9137 4.83188 39.8622 4.91727 39.8289 5.01023C39.7955 5.10319 39.7809 5.20186 39.7859 5.30052ZM41.8576 4.25077H42.2321V4.54527C42.2982 4.43585 42.3935 4.34703 42.5071 4.28877C42.6235 4.22011 42.7561 4.18401 42.8911 4.18427C42.9997 4.17683 43.1086 4.19245 43.2107 4.23011C43.3128 4.26776 43.4058 4.3266 43.4837 4.40277C43.6316 4.57686 43.7063 4.8016 43.6923 5.02977V6.34552H43.2988V5.05827C43.3047 4.98901 43.2953 4.91931 43.2713 4.85408C43.2473 4.78885 43.2094 4.72969 43.1601 4.68077C43.1108 4.63185 43.0514 4.59436 42.9861 4.57094C42.9208 4.54753 42.8511 4.53877 42.7821 4.54527C42.7061 4.54301 42.6307 4.55909 42.5622 4.59216C42.4937 4.62523 42.4342 4.67431 42.3886 4.73527C42.278 4.8679 42.2221 5.03776 42.2321 5.21027V6.36927H41.8387L41.8576 4.25077ZM45.9347 6.38352C45.7783 6.38709 45.6269 6.32911 45.5127 6.22202C45.4548 6.16537 45.4093 6.09725 45.3791 6.02202C45.3489 5.94678 45.3347 5.86607 45.3373 5.78502V4.61177H44.9723V4.25077H45.3373V3.60952H45.7308V4.25077H46.2428V4.61177H45.7308V5.65677C45.7252 5.7065 45.7294 5.75686 45.7432 5.80495C45.757 5.85305 45.7802 5.89793 45.8114 5.93702C45.8608 5.98552 45.9271 6.01278 45.9963 6.01302H46.0864C46.1159 6.00713 46.1446 5.99756 46.1717 5.98452L46.295 6.33602C46.1786 6.37286 46.0566 6.38894 45.9347 6.38352ZM46.641 3.28652H47.0345V4.53102C47.0994 4.4206 47.1949 4.33148 47.3095 4.27452C47.4258 4.20586 47.5584 4.16976 47.6935 4.17002C47.802 4.16258 47.9109 4.1782 48.0131 4.21586C48.1152 4.25351 48.2082 4.31235 48.2861 4.38852C48.4339 4.56261 48.5087 4.78735 48.4947 5.01552V6.33127H48.1012V5.10577C48.1012 4.73052 47.9353 4.54527 47.5987 4.54527C47.5212 4.54541 47.4448 4.56298 47.3751 4.59669C47.3053 4.6304 47.244 4.67938 47.1957 4.74002C47.0863 4.87354 47.029 5.04235 47.0345 5.21502V6.35502H46.641V3.28652ZM49.8932 6.41677C49.7513 6.42154 49.6101 6.39558 49.4792 6.34065C49.3483 6.28573 49.2308 6.20314 49.1347 6.09852C49.0347 5.99189 48.9569 5.86646 48.9056 5.72948C48.8543 5.59251 48.8307 5.44671 48.836 5.30052C48.8263 5.00714 48.9298 4.7213 49.1252 4.50252C49.2225 4.40472 49.3381 4.32712 49.4655 4.27417C49.5928 4.22122 49.7293 4.19397 49.8671 4.19397C50.0049 4.19397 50.1414 4.22122 50.2688 4.27417C50.3961 4.32712 50.5117 4.40472 50.609 4.50252C50.8027 4.74015 50.9008 5.0417 50.884 5.34802V5.39077H49.239C49.2385 5.48325 49.2563 5.57491 49.2913 5.6605C49.3263 5.74608 49.3778 5.82391 49.4428 5.88952C49.5703 6.01148 49.7407 6.07806 49.9169 6.07477C50.041 6.075 50.1626 6.03983 50.2676 5.97339C50.3725 5.90694 50.4564 5.81195 50.5095 5.69952L50.8555 5.87052C50.7676 6.04233 50.6328 6.18562 50.4668 6.28377C50.2916 6.38044 50.093 6.42648 49.8932 6.41677ZM49.2674 5.04877H50.4621C50.4583 4.97993 50.4408 4.91253 50.4107 4.85054C50.3806 4.78855 50.3384 4.73321 50.2867 4.68777C50.1674 4.58812 50.0151 4.53722 49.86 4.54527C49.7199 4.54028 49.5831 4.58769 49.476 4.67827C49.3681 4.77578 49.2949 4.90584 49.2674 5.04877Z" fill="white"/>
</g>
<defs>
<linearGradient id="paint0_linear_994_4218" x1="10.3349" y1="4.24427" x2="2.36446" y2="12.1992" gradientUnits="userSpaceOnUse">
<stop stop-color="#00A0FF"/>
<stop offset="0.01" stop-color="#00A1FF"/>
<stop offset="0.26" stop-color="#00BEFF"/>
<stop offset="0.51" stop-color="#00D2FF"/>
<stop offset="0.76" stop-color="#00DFFF"/>
<stop offset="1" stop-color="#00E3FF"/>
</linearGradient>
<linearGradient id="paint1_linear_994_4218" x1="16.0391" y1="9.60819" x2="4.5712" y2="9.60819" gradientUnits="userSpaceOnUse">
<stop stop-color="#FFE000"/>
<stop offset="0.41" stop-color="#FFBD00"/>
<stop offset="0.78" stop-color="#FFA500"/>
<stop offset="1" stop-color="#FF9C00"/>
</linearGradient>
<linearGradient id="paint2_linear_994_4218" x1="11.7731" y1="10.7009" x2="0.962126" y2="21.4861" gradientUnits="userSpaceOnUse">
<stop stop-color="#FF3A44"/>
<stop offset="1" stop-color="#C31162"/>
</linearGradient>
<linearGradient id="paint3_linear_994_4218" x1="3.46258" y1="0.193726" x2="8.28857" y2="5.01031" gradientUnits="userSpaceOnUse">
<stop stop-color="#32A071"/>
<stop offset="0.07" stop-color="#2DA771"/>
<stop offset="0.48" stop-color="#15CF74"/>
<stop offset="0.8" stop-color="#06E775"/>
<stop offset="1" stop-color="#00F076"/>
</linearGradient>
<clipPath id="clip0_994_4218">
<rect width="64" height="19" fill="white" transform="translate(0 0.108398)"/>
</clipPath>
</defs>
</svg>
