<svg viewBox="0 0 46 45" fill="white" xmlns="http://www.w3.org/2000/svg">
<path fill-rule="evenodd" clip-rule="evenodd" d="M23.3394 5.62602C27.4408 5.62602 28.0383 5.64796 29.7666 5.72729C31.5624 5.80999 32.7895 6.09523 33.8629 6.51212C34.9895 6.93555 36.0102 7.59967 36.8537 8.45816C37.7122 9.30168 38.3763 10.3223 38.7997 11.449C39.2166 12.5224 39.5019 13.7494 39.5846 15.5453C39.6656 17.3462 39.6858 17.92 39.6858 22.5041V22.6391C39.6858 27.1 39.6656 27.6806 39.5846 29.4629C39.5019 31.2588 39.2166 32.4858 38.7997 33.5592C38.3763 34.6858 37.7122 35.7065 36.8537 36.55C36.0102 37.4085 34.9895 38.0726 33.8629 38.4961C32.7895 38.913 31.5624 39.1982 29.7666 39.2809C27.9657 39.3619 27.3918 39.3822 22.8078 39.3822H22.6727C18.2119 39.3822 17.6313 39.3619 15.8489 39.2809C14.0531 39.1982 12.8261 38.913 11.7526 38.4961C10.626 38.0726 9.60535 37.4085 8.76183 36.55C7.90334 35.7065 7.23921 34.6858 6.81579 33.5592C6.3989 32.4858 6.11366 31.2588 6.03096 29.4629C5.95163 27.7346 5.92969 27.1354 5.92969 23.0358V21.9724C5.92969 17.8711 5.95163 17.2736 6.03096 15.5453C6.11366 13.7494 6.3989 12.5224 6.81579 11.449C7.23921 10.3223 7.90334 9.30168 8.76183 8.45816C9.60535 7.59967 10.626 6.93555 11.7526 6.51212C12.8261 6.09523 14.0531 5.80999 15.8489 5.72729C17.5772 5.64796 18.1764 5.62602 22.2761 5.62602H23.3394ZM23.2027 8.66745H22.4128C18.2676 8.66745 17.714 8.68602 15.9873 8.76534C14.3417 8.8413 13.4489 9.11472 12.8531 9.34595C12.0649 9.65313 11.5028 10.0177 10.9121 10.6084C10.3214 11.1992 9.9568 11.7612 9.64961 12.5494C9.41839 13.1452 9.14327 14.0381 9.06901 15.6837C8.98968 17.4103 8.97112 17.9639 8.97112 22.1091V22.899C8.97112 27.0443 8.98968 27.5979 9.06901 29.3245C9.14496 30.9701 9.41839 31.863 9.64961 32.4588C9.9568 33.2453 10.3231 33.809 10.9121 34.3998C11.5028 34.9905 12.0649 35.3551 12.8531 35.6622C13.4489 35.8935 14.3417 36.1686 15.9873 36.2428C17.7663 36.3239 18.2996 36.3407 22.8078 36.3407H22.9428C27.326 36.3407 27.8661 36.3239 29.6265 36.2428C31.2738 36.1669 32.1667 35.8935 32.7624 35.6622C33.549 35.3551 34.1127 34.9905 34.7034 34.3998C35.2942 33.809 35.6587 33.247 35.9659 32.4588C36.1971 31.863 36.4722 30.9701 36.5465 29.3245C36.6275 27.5439 36.6444 27.0122 36.6444 22.5041V22.3691C36.6444 17.9858 36.6275 17.4457 36.5465 15.6854C36.4706 14.0381 36.1971 13.1452 35.9659 12.5494C35.6955 11.8162 35.2641 11.1529 34.7034 10.6084C34.1589 10.0478 33.4957 9.61644 32.7624 9.34595C32.1667 9.11472 31.2738 8.83961 29.6282 8.76534C27.9016 8.68602 27.348 8.66745 23.2027 8.66745ZM22.8078 13.8372C23.9459 13.8372 25.0729 14.0614 26.1244 14.4969C27.176 14.9325 28.1314 15.5709 28.9362 16.3757C29.741 17.1805 30.3794 18.1359 30.8149 19.1874C31.2505 20.2389 31.4747 21.3659 31.4747 22.5041C31.4747 23.6422 31.2505 24.7693 30.8149 25.8208C30.3794 26.8723 29.741 27.8277 28.9362 28.6325C28.1314 29.4373 27.176 30.0757 26.1244 30.5113C25.0729 30.9468 23.9459 31.171 22.8078 31.171C20.5092 31.171 18.3047 30.2579 16.6793 28.6325C15.054 27.0072 14.1409 24.8027 14.1409 22.5041C14.1409 20.2055 15.054 18.001 16.6793 16.3757C18.3047 14.7503 20.5092 13.8372 22.8078 13.8372ZM22.8078 16.8786C21.3158 16.8786 19.8849 17.4713 18.83 18.5263C17.775 19.5813 17.1823 21.0121 17.1823 22.5041C17.1823 23.9961 17.775 25.4269 18.83 26.4819C19.8849 27.5369 21.3158 28.1296 22.8078 28.1296C24.2997 28.1296 25.7306 27.5369 26.7856 26.4819C27.8405 25.4269 28.4332 23.9961 28.4332 22.5041C28.4332 21.0121 27.8405 19.5813 26.7856 18.5263C25.7306 17.4713 24.2997 16.8786 22.8078 16.8786ZM31.8173 11.4692C32.3544 11.4692 32.8696 11.6826 33.2494 12.0624C33.6293 12.4423 33.8426 12.9574 33.8426 13.4946C33.8426 14.0317 33.6293 14.5469 33.2494 14.9267C32.8696 15.3066 32.3544 15.5199 31.8173 15.5199C31.2801 15.5199 30.765 15.3066 30.3851 14.9267C30.0053 14.5469 29.7919 14.0317 29.7919 13.4946C29.7919 12.9574 30.0053 12.4423 30.3851 12.0624C30.765 11.6826 31.2801 11.4692 31.8173 11.4692Z" />
</svg>
