<svg viewBox="0 0 240 46" fill="none" xmlns="http://www.w3.org/2000/svg">
<path d="M33.3801 10.7339H3.03373C1.35331 10.7339 0 12.0352 0 13.6399V42.6848C0 44.2906 1.35331 45.5956 3.03373 45.5956H33.3801C35.0566 45.5956 36.4164 44.2906 36.4164 42.6848V13.6399C36.4164 12.0352 35.0566 10.7339 33.3801 10.7339ZM10.3506 15.1095H26.1273L30.0641 21.6309H6.41766L10.3506 15.1095ZM10.3506 41.2729L2.45906 28.1955L6.40099 21.6592L18.2306 41.2729H10.3506ZM26.1273 41.2729H18.2499L30.0782 21.6592L34.024 28.1955L26.1273 41.2729Z" fill="white"/>
<path d="M122.267 15.0883L113.76 30.0772L111.978 15.0919V15.0883H101.075L90.1445 45.4676H101.047L105.471 33.171L106.94 45.4676H114.009L121.131 32.9206L120.325 45.4676H130.902L132.848 15.0883H122.267Z" fill="white"/>
<path d="M47.9403 15.0876H44.736L52.9238 29.2344L36.5391 45.4683H40.3168L56.3398 29.5917L47.9403 15.0876ZM70.9723 15.0876H67.1946L62.297 19.9444L59.4826 15.0876H49.5463L57.3532 28.5813L70.9723 15.0876ZM42.2653 45.4683H53.5344L59.1234 39.9289L62.3264 45.4683H65.5295L57.0453 30.8169L42.2653 45.4683ZM68.1643 32.6327C68.1643 24.8577 73.4839 18.1582 81.1664 15.0876H72.9221L58.0664 29.8077L67.1368 45.4683H76.3522C71.497 43.0768 68.1643 38.2322 68.1643 32.6327Z" fill="white"/>
<path d="M92.701 35.4514C91.1155 35.8112 89.3812 36.0124 87.552 36.0124C84.7171 36.0124 82.426 33.8137 82.426 31.1004C82.426 27.3707 85.8613 24.3493 90.1124 24.3493C92.3687 24.3493 94.4763 24.7287 96.2555 25.3818L99.7895 15.5517C97.2009 14.6959 94.366 14.2233 91.3964 14.2233C79.0049 14.2233 68.957 22.4673 68.957 32.6326C68.957 35.9339 70.2719 39.2327 72.8964 41.747C76.8948 45.5713 82.8301 46.7536 89.0759 45.5468L92.701 35.4514Z" fill="white"/>
<path d="M150.689 26.4215L149.062 33.7778H155.412C154.128 34.9319 152.33 35.6452 150.348 35.6452C147.246 35.6452 144.733 32.9651 144.733 29.6626C144.733 25.761 147.753 22.6046 151.465 22.6046C153.471 22.6046 155.276 23.5253 156.507 24.9887L166.387 21.1694C164.98 16.5594 158.91 13.0912 151.628 13.0912C141.186 13.0912 132.71 20.7839 132.711 30.274C132.71 38.41 140.171 45.0089 149.379 45.0089C156.339 45.0089 160.396 42.8517 163.778 39.4842C166.31 36.9588 168.798 31.7019 167.553 26.4215H150.689Z" fill="white"/>
<rect width="78" height="20.5615" transform="translate(162)" fill="#00469B"/>
<path d="M174.467 15.9128C173.411 15.9128 172.467 15.7101 171.635 15.3048C170.814 14.8995 170.174 14.3341 169.715 13.6088C169.257 12.8728 169.027 12.0355 169.027 11.0968V4.6488H172.643V11.0968C172.643 11.7368 172.798 12.2168 173.107 12.5368C173.417 12.8568 173.87 13.0168 174.467 13.0168C175.065 13.0168 175.518 12.8568 175.827 12.5368C176.137 12.2061 176.291 11.7261 176.291 11.0968V4.6488H179.907V11.0968C179.907 12.0355 179.678 12.8728 179.219 13.6088C178.761 14.3341 178.115 14.8995 177.283 15.3048C176.462 15.7101 175.523 15.9128 174.467 15.9128Z" fill="white"/>
<path d="M180.289 4.6488H184.001V9.1448H185.153L187.281 4.6488H190.977V5.3688L188.449 10.1048L191.345 14.9368V15.6568H187.457L185.089 11.2888H184.001V15.6568H180.289V4.6488Z" fill="white"/>
<path d="M199.291 15.9128C197.285 15.9128 196.059 14.9848 195.611 13.1288L195.211 11.4808H194.459V15.6568H190.955V4.6488H195.803C196.72 4.6488 197.525 4.78747 198.219 5.0648C198.923 5.33147 199.467 5.71014 199.851 6.2008C200.235 6.69147 200.427 7.2568 200.427 7.8968C200.427 8.61147 200.251 9.21414 199.899 9.7048C199.557 10.1848 199.024 10.5795 198.299 10.8888C198.373 11.2941 198.459 11.6621 198.555 11.9928C198.683 12.3981 198.859 12.6808 199.083 12.8408C199.307 13.0008 199.632 13.0808 200.059 13.0808C200.208 13.0808 200.443 13.0595 200.763 13.0168V15.6248C200.261 15.8168 199.771 15.9128 199.291 15.9128ZM195.067 9.2408C195.856 9.2408 196.411 9.15547 196.731 8.9848C197.061 8.80347 197.227 8.49947 197.227 8.0728C197.227 7.71014 197.093 7.4488 196.827 7.2888C196.56 7.11814 196.139 7.0328 195.563 7.0328H194.459V9.2408H195.067Z" fill="white"/>
<path d="M202.606 4.6488H207.47L210.654 15.6568H206.894L206.478 13.5448H203.63L203.166 15.6568H199.566L202.606 4.6488ZM206.094 11.5768L205.054 6.7608L203.966 11.5768H206.094Z" fill="white"/>
<path d="M210.114 4.6488H213.81V15.6568H210.114V4.6488Z" fill="white"/>
<path d="M214.295 4.6488H217.511L221.895 10.5848V4.6488H224.759V15.6568H221.559L217.143 9.9288V15.6568H214.295V4.6488Z" fill="white"/>
<path d="M225.242 4.6488H232.97V7.0808H229.13V9.0808H232.634V11.0968H229.13V13.2248H232.97V15.6568H225.242V4.6488Z" fill="white"/>
</svg>
