<svg  viewBox="0 0 30 18" fill="none" xmlns="http://www.w3.org/2000/svg">
<g id="mastercard">
<g id="Group">
<g id="Group_2">
<path id="Vector" d="M30 9C30 13.9524 26 18 21 18C16.0476 18 12 13.9524 12 9C12 4.04762 16 0 20.9524 0C26 0 30 4.04762 30 9Z" fill="#C8CFD7"/>
</g>
</g>
<g id="Group_3">
<g id="Group_4">
<path id="Vector_2" d="M8.90476 0C4 0.047619 0 4.04762 0 9C0 13.9524 4 18 9 18C11.3333 18 13.4286 17.0952 15.0476 15.6667C15.381 15.381 15.6667 15.0476 15.9524 14.7143H14.0952C13.8571 14.4286 13.619 14.0952 13.4286 13.8095H16.619C16.8095 13.5238 17 13.1905 17.1429 12.8571H12.9048C12.7619 12.5714 12.619 12.2381 12.5238 11.9048H17.4762C17.7619 11 17.9524 10.0476 17.9524 9.04762C17.9524 8.38095 17.8571 7.7619 17.7619 7.14286H12.2381C12.2857 6.80952 12.381 6.52381 12.4762 6.19048H17.4286C17.3333 5.85714 17.1905 5.52381 17.0476 5.23809H12.8571C13 4.90476 13.1905 4.61905 13.381 4.28571H16.5714C16.381 3.95238 16.1429 3.61905 15.8571 3.33333H14.0952C14.381 3 14.6667 2.71429 15 2.42857C13.4286 0.952381 11.2381 0 8.90476 0Z" fill="#A0ACBB"/>
</g>
</g>
<g id="Group_5">
<g id="Group_6">
<g id="Group_7">
<path id="Vector_3" d="M12.1895 11.2852L12.3324 10.4757C12.2848 10.4757 12.1895 10.5233 12.0943 10.5233C11.761 10.5233 11.7134 10.3328 11.761 10.2376L12.0467 8.57092H12.5705L12.7134 7.66616H12.2372L12.3324 7.09473H11.38C11.38 7.09473 10.8086 10.2376 10.8086 10.6185C10.8086 11.19 11.1419 11.4281 11.5705 11.4281C11.8562 11.4281 12.0943 11.3328 12.1895 11.2852Z" fill="#1C1C1C"/>
</g>
</g>
<g id="Group_8">
<g id="Group_9">
<path id="Vector_4" d="M12.5254 9.76119C12.5254 11.0945 13.4302 11.4279 14.1921 11.4279C14.9063 11.4279 15.1921 11.285 15.1921 11.285L15.3825 10.3802C15.3825 10.3802 14.8587 10.6183 14.3825 10.6183C13.3349 10.6183 13.5254 9.85643 13.5254 9.85643H15.4778C15.4778 9.85643 15.6206 9.23738 15.6206 8.99928C15.6206 8.38024 15.2873 7.61833 14.2397 7.61833C13.2397 7.52309 12.5254 8.57071 12.5254 9.76119ZM14.1921 8.38024C14.7159 8.38024 14.6206 8.99928 14.6206 9.0469H13.573C13.573 8.99928 13.6682 8.38024 14.1921 8.38024Z" fill="#1C1C1C"/>
</g>
</g>
<g id="Group_10">
<g id="Group_11">
<path id="Vector_5" d="M20.2382 11.2851L20.4287 10.2374C20.4287 10.2374 19.9525 10.4755 19.6191 10.4755C18.9525 10.4755 18.6668 9.95173 18.6668 9.3803C18.6668 8.23744 19.2382 7.6184 19.9049 7.6184C20.381 7.6184 20.762 7.90411 20.762 7.90411L20.9049 6.90411C20.9049 6.90411 20.3334 6.66602 19.8096 6.66602C18.7144 6.66602 17.6191 7.6184 17.6191 9.42792C17.6191 10.6184 18.1906 11.4279 19.3334 11.4279C19.7144 11.4279 20.2382 11.2851 20.2382 11.2851Z" fill="#1C1C1C"/>
</g>
</g>
<g id="Group_12">
<g id="Group_13">
<path id="Vector_6" d="M6.95406 7.52344C6.28739 7.52344 5.8112 7.71391 5.8112 7.71391L5.66834 8.52344C5.66834 8.52344 6.09691 8.33296 6.71596 8.33296C7.04929 8.33296 7.33501 8.38058 7.33501 8.66629C7.33501 8.85677 7.28739 8.90439 7.28739 8.90439C7.28739 8.90439 7.00167 8.90439 6.85882 8.90439C6.04929 8.90439 5.14453 9.23772 5.14453 10.333C5.14453 11.1901 5.71596 11.3806 6.04929 11.3806C6.71596 11.3806 7.00167 10.952 7.04929 10.952L7.00167 11.333H7.85882L8.23977 8.71391C8.23977 7.57106 7.28739 7.52344 6.95406 7.52344ZM7.14453 9.6663C7.14453 9.80915 7.04929 10.5711 6.47786 10.5711C6.19215 10.5711 6.09691 10.333 6.09691 10.1901C6.09691 9.95201 6.23977 9.61868 6.95406 9.61868C7.09691 9.66629 7.14453 9.6663 7.14453 9.6663Z" fill="#1C1C1C"/>
</g>
</g>
<g id="Group_14">
<g id="Group_15">
<path id="Vector_7" d="M9.14211 11.3803C9.38021 11.3803 10.5707 11.428 10.5707 10.1423C10.5707 8.95178 9.42783 9.18987 9.42783 8.71368C9.42783 8.47559 9.6183 8.38035 9.95164 8.38035C10.0945 8.38035 10.6183 8.42797 10.6183 8.42797L10.7612 7.57082C10.7612 7.57082 10.4278 7.47559 9.8564 7.47559C9.14211 7.47559 8.42783 7.7613 8.42783 8.71368C8.42783 9.80892 9.6183 9.71368 9.6183 10.1423C9.6183 10.428 9.28497 10.4756 9.04688 10.4756C8.6183 10.4756 8.18973 10.3327 8.18973 10.3327L8.04688 11.1899C8.09449 11.2851 8.33259 11.3803 9.14211 11.3803Z" fill="#1C1C1C"/>
</g>
</g>
<g id="Group_16">
<g id="Group_17">
<path id="Vector_8" d="M28.144 6.76074L27.9535 8.04646C27.9535 8.04646 27.5725 7.57027 27.0487 7.57027C26.1916 7.57027 25.4297 8.61789 25.4297 9.85598C25.4297 10.6179 25.8106 11.4274 26.6202 11.4274C27.1916 11.4274 27.5249 11.0465 27.5249 11.0465L27.4773 11.3798H28.4297L29.144 6.80836L28.144 6.76074ZM27.7154 9.28455C27.7154 9.80836 27.4773 10.475 26.9535 10.475C26.6202 10.475 26.4297 10.1893 26.4297 9.71312C26.4297 8.95122 26.763 8.47503 27.1916 8.47503C27.5249 8.47503 27.7154 8.71312 27.7154 9.28455Z" fill="#1C1C1C"/>
</g>
</g>
<g id="Group_18">
<g id="Group_19">
<path id="Vector_9" d="M1.76218 11.3322L2.33361 7.9036L2.42885 11.3322H3.09552L4.33361 7.9036L3.8098 11.3322H4.8098L5.57171 6.76074H4.00028L3.0479 9.57027L3.00028 6.76074H1.61933L0.857422 11.3322H1.76218Z" fill="#1C1C1C"/>
</g>
</g>
<g id="Group_20">
<g id="Group_21">
<path id="Vector_10" d="M16.5242 11.3334C16.8099 9.762 16.8575 8.47628 17.5242 8.71438C17.6194 8.09533 17.7623 7.85724 17.8575 7.61914C17.8575 7.61914 17.8099 7.61914 17.667 7.61914C17.2385 7.61914 16.9051 8.19057 16.9051 8.19057L17.0004 7.66676H16.0956L15.4766 11.381H16.5242V11.3334Z" fill="#1C1C1C"/>
</g>
</g>
<g id="Group_22">
<g id="Group_23">
<path id="Vector_11" d="M22.4287 7.52344C21.762 7.52344 21.2858 7.71391 21.2858 7.71391L21.143 8.52344C21.143 8.52344 21.5715 8.33296 22.1906 8.33296C22.5239 8.33296 22.8096 8.38058 22.8096 8.66629C22.8096 8.85677 22.762 8.90439 22.762 8.90439C22.762 8.90439 22.4763 8.90439 22.3334 8.90439C21.5239 8.90439 20.6191 9.23772 20.6191 10.333C20.6191 11.1901 21.1906 11.3806 21.5239 11.3806C22.1906 11.3806 22.4763 10.952 22.5239 10.952L22.4763 11.333H23.3334L23.7144 8.71391C23.762 7.57106 22.762 7.52344 22.4287 7.52344ZM22.6668 9.6663C22.6668 9.80915 22.5715 10.5711 22.0001 10.5711C21.7144 10.5711 21.6191 10.333 21.6191 10.1901C21.6191 9.95201 21.762 9.61868 22.4763 9.61868C22.6191 9.66629 22.6191 9.6663 22.6668 9.6663Z" fill="#1C1C1C"/>
</g>
</g>
<g id="Group_24">
<g id="Group_25">
<path id="Vector_12" d="M24.5242 11.3334C24.8099 9.762 24.8575 8.47628 25.5242 8.71438C25.6194 8.09533 25.7623 7.85724 25.8575 7.61914C25.8575 7.61914 25.8099 7.61914 25.667 7.61914C25.2385 7.61914 24.9051 8.19057 24.9051 8.19057L25.0004 7.66676H24.0956L23.4766 11.381H24.5242V11.3334Z" fill="#1C1C1C"/>
</g>
</g>
</g>
</g>
</svg>
