<svg viewBox="0 0 24 24" fill="white" xmlns="http://www.w3.org/2000/svg">
<path d="M22.5333 24L13.7667 15.2333C13.1 15.8111 12.3227 16.2611 11.4347 16.5833C10.5467 16.9056 9.60182 17.0667 8.6 17.0667C6.1964 17.0667 4.16217 16.2333 2.4973 14.5667C0.832434 12.9 0 10.8889 0 8.53333C0 6.17778 0.833333 4.16667 2.5 2.5C4.16667 0.833333 6.18333 0 8.55 0C10.9167 0 12.9278 0.833333 14.5833 2.5C16.2389 4.16667 17.0667 6.17944 17.0667 8.53833C17.0667 9.49056 16.9111 10.4111 16.6 11.3C16.2889 12.1889 15.8222 13.0222 15.2 13.8L24 22.5333L22.5333 24ZM8.56667 15.0667C10.3722 15.0667 11.9069 14.4278 13.1708 13.15C14.4347 11.8722 15.0667 10.3333 15.0667 8.53333C15.0667 6.73333 14.4347 5.19444 13.1708 3.91667C11.9069 2.63889 10.3722 2 8.56667 2C6.7426 2 5.19213 2.63889 3.91527 3.91667C2.63842 5.19444 2 6.73333 2 8.53333C2 10.3333 2.63842 11.8722 3.91527 13.15C5.19213 14.4278 6.7426 15.0667 8.56667 15.0667Z" />
</svg>
