<svg width="40" height="40" viewBox="0 0 40 40" fill="none" xmlns="http://www.w3.org/2000/svg">
<g id="Shop bag">
<path id="Vector" d="M12.8125 12.3125H12.875V12.25V11.9531C12.875 10.7234 13.3211 9.68589 14.2149 8.83672C15.1089 7.98741 16.2026 7.5625 17.5 7.5625C18.7974 7.5625 19.8911 7.98741 20.7851 8.83672C21.6789 9.68589 22.125 10.7234 22.125 11.9531V12.25V12.3125H22.1875H25.625C26.1084 12.3125 26.5306 12.4841 26.8945 12.8297C27.2583 13.1753 27.4375 13.575 27.4375 14.0313V29.4688C27.4375 29.925 27.2583 30.3247 26.8945 30.6703C26.5306 31.016 26.1084 31.1875 25.625 31.1875H9.375C8.89162 31.1875 8.46938 31.016 8.10555 30.6703C7.74174 30.3247 7.5625 29.925 7.5625 29.4688V14.0313C7.5625 13.575 7.74174 13.1753 8.10555 12.8297C8.46938 12.4841 8.89162 12.3125 9.375 12.3125H12.8125ZM9.3125 29.4688V29.5312H9.375H25.625H25.6875V29.4688V14.0313V13.9688H25.625H22.1875H22.125V14.0313V16.7031C22.125 16.9386 22.0415 17.1336 21.8735 17.2923C21.7053 17.4511 21.497 17.5312 21.2445 17.5312C20.992 17.5312 20.7859 17.4512 20.6215 17.2927C20.457 17.1341 20.375 16.939 20.375 16.7031V14.0313V13.9688H20.3125H14.6875H14.625V14.0313V16.7031C14.625 16.9386 14.5415 17.1336 14.3735 17.2923C14.2053 17.4511 13.997 17.5312 13.7445 17.5312C13.492 17.5312 13.2859 17.4512 13.1215 17.2927C12.957 17.1341 12.875 16.939 12.875 16.7031V14.0313V13.9688H12.8125H9.375H9.3125V14.0313V29.4688ZM14.625 12.25V12.3125H14.6875H20.3125H20.375V12.25V11.9531C20.375 11.184 20.0972 10.5343 19.543 10.0078C18.989 9.48149 18.3066 9.21875 17.5 9.21875C16.6934 9.21875 16.011 9.48149 15.457 10.0078C14.9028 10.5343 14.625 11.184 14.625 11.9531V12.25Z" fill="white" stroke="white" stroke-width="0.125"/>
<path id="Rectangle 7543" d="M22.5 12.5C22.5 9.73858 24.7386 7.5 27.5 7.5C30.2614 7.5 32.5 9.73858 32.5 12.5C32.5 15.2614 30.2614 17.5 27.5 17.5C24.7386 17.5 22.5 15.2614 22.5 12.5Z" fill="url(#paint0_linear_928_9357)"/>
</g>
<defs>
<linearGradient id="paint0_linear_928_9357" x1="29.5714" y1="-6.33929" x2="43.1308" y2="9.66663" gradientUnits="userSpaceOnUse">
<stop offset="0.0605104" stop-color="#68D595"/>
<stop offset="0.505208" stop-color="#2DCD70"/>
<stop offset="0.968018" stop-color="#086A31"/>
</linearGradient>
</defs>
</svg>
