<svg viewBox="0 0 45 45" fill="none" xmlns="http://www.w3.org/2000/svg">
<path d="M22.5038 7.10655C31.0077 7.10655 37.9014 14.0003 37.9014 22.5041C37.9014 31.0079 31.0077 37.9016 22.5038 37.9016C14 37.9016 7.1063 31.0079 7.1063 22.5041C7.1063 14.0003 14 7.10655 22.5038 7.10655Z" stroke="white" stroke-width="2.36885"/>
<path d="M17.6211 23.7971L19.53 28.8458L27.9974 17.3708L17.6211 23.7971Z" fill="white"/>
<path d="M19.7386 24.9169L19.5547 28.8957L24.0248 25.1967L19.7386 24.9169Z" fill="#919191"/>
<path d="M30.0674 15.433L13.3778 21.62C12.9071 21.7952 12.9181 22.4508 13.3975 22.6067L17.7012 24.0248L27.5018 17.8549L19.7393 24.9175L25.7833 29.3918C26.4116 29.8573 27.3244 29.5434 27.5149 28.798L30.781 16.0502C30.8861 15.6402 30.4745 15.2814 30.0674 15.433Z" fill="white"/>
</svg>
