<svg width="40" height="40" viewBox="0 0 40 40" fill="none" xmlns="http://www.w3.org/2000/svg">
<g id="uccount">
<path id="Vector" d="M20 19.5263C18.5563 19.5263 17.3203 18.9987 16.2922 17.9435C15.2641 16.8883 14.75 15.6199 14.75 14.1382C14.75 12.6564 15.2641 11.3879 16.2922 10.3328C17.3203 9.27759 18.5563 8.75 20 8.75C21.4437 8.75 22.6797 9.27759 23.7078 10.3328C24.7359 11.3879 25.25 12.6564 25.25 14.1382C25.25 15.6199 24.7359 16.8883 23.7078 17.9435C22.6797 18.9987 21.4437 19.5263 20 19.5263ZM8.75 31.25V27.8277C8.75 27.0737 8.94953 26.3755 9.34858 25.7331C9.7476 25.0907 10.2808 24.5968 10.9481 24.2514C12.4308 23.5053 13.9265 22.9458 15.4351 22.5727C16.9438 22.1997 18.4654 22.0132 20 22.0132C21.5346 22.0132 23.0562 22.1997 24.5649 22.5727C26.0735 22.9458 27.5692 23.5053 29.0519 24.2514C29.7192 24.5968 30.2524 25.0907 30.6514 25.7331C31.0505 26.3755 31.25 27.0737 31.25 27.8277V31.25H8.75ZM11 28.9408H29V27.8277C29 27.5158 28.912 27.2272 28.7361 26.9617C28.5601 26.6962 28.3212 26.4796 28.0192 26.3118C26.7269 25.6586 25.4092 25.1637 24.0661 24.8271C22.7229 24.4906 21.3676 24.3224 20 24.3224C18.6324 24.3224 17.2771 24.4906 15.9339 24.8271C14.5908 25.1637 13.2731 25.6586 11.9807 26.3118C11.6788 26.4796 11.4399 26.6962 11.2639 26.9617C11.088 27.2272 11 27.5158 11 27.8277V28.9408ZM20 17.2171C20.825 17.2171 21.5313 16.9156 22.1188 16.3127C22.7063 15.7097 23 14.9849 23 14.1382C23 13.2914 22.7063 12.5666 22.1188 11.9636C21.5313 11.3607 20.825 11.0592 20 11.0592C19.175 11.0592 18.4687 11.3607 17.8812 11.9636C17.2937 12.5666 17 13.2914 17 14.1382C17 14.9849 17.2937 15.7097 17.8812 16.3127C18.4687 16.9156 19.175 17.2171 20 17.2171Z" fill="white"/>
</g>
</svg>
