<svg viewBox="0 0 46 45" fill="white" xmlns="http://www.w3.org/2000/svg">
<path fill-rule="evenodd" clip-rule="evenodd" d="M24.2594 24.9585C24.2594 24.9585 24.8927 25.0119 25.2324 24.6111L25.8968 23.8192C26.2172 23.4254 26.9914 23.1751 27.7492 23.5745C28.7518 24.1118 30.0481 24.9557 30.9365 25.7419C31.4259 26.1329 31.5401 26.7096 31.2064 27.3186L31.2035 27.3312C30.8594 27.9051 30.4011 28.4438 29.8212 28.9459L29.8078 28.9543C29.1553 29.4705 28.4048 29.7701 27.6024 29.5225L27.5876 29.5028C26.146 29.1161 22.6873 27.4437 20.4834 25.7771C16.8779 23.0794 14.315 18.6293 13.6061 16.2439L13.5838 16.2298C13.3228 15.4661 13.6417 14.7544 14.183 14.137L14.1934 14.1257C14.7229 13.5758 15.2894 13.1398 15.896 12.8149L15.9094 12.8121C16.5501 12.4956 17.1582 12.6025 17.572 13.0681C18.1163 13.6011 19.1382 14.8838 19.856 16.0906C20.2772 16.8079 20.0132 17.5435 19.5994 17.8459L18.7629 18.476C18.3417 18.7995 18.3966 19.4001 18.3966 19.4001C18.3966 19.4001 19.6335 23.8389 24.2594 24.9585ZM31.5372 21.2791C31.2895 21.2791 31.0878 21.0892 31.0863 20.8544C31.0655 18.2805 30.2498 16.2298 28.6629 14.7615C27.0729 13.2917 25.0633 12.5378 22.6903 12.5224C22.4411 12.5209 22.2409 12.3283 22.2439 12.092C22.2453 11.8571 22.4456 11.6686 22.6932 11.6686H22.6962C25.3095 11.6855 27.5283 12.5209 29.2917 14.1497C31.0566 15.784 31.9643 18.0386 31.9866 20.8487C31.988 21.0836 31.7893 21.2763 31.5401 21.2791H31.5372ZM29.1716 20.4015H29.1612C28.912 20.3959 28.7148 20.2003 28.7207 19.9655C28.7563 18.5055 28.3158 17.3241 27.377 16.3522C26.4426 15.3831 25.1597 14.8543 23.4541 14.7362C23.2064 14.7179 23.0195 14.5139 23.0373 14.2791C23.0566 14.0442 23.2717 13.867 23.5194 13.8838C25.4385 14.0174 26.9602 14.6546 28.0414 15.7756C29.1286 16.9007 29.661 18.3171 29.621 19.9838C29.615 20.2158 29.4148 20.4015 29.1716 20.4015ZM26.8608 19.6673C26.6221 19.6673 26.4233 19.4901 26.4115 19.2608C26.3358 17.8121 25.615 17.1033 24.1467 17.0273C23.8976 17.0147 23.7077 16.8135 23.7211 16.5787C23.7344 16.3424 23.945 16.1623 24.1942 16.175C26.1341 16.2734 27.2109 17.3269 27.3102 19.2186C27.3236 19.4535 27.1323 19.6546 26.8831 19.6659L26.8608 19.6673ZM36.9714 24.5464C36.0741 31.4058 30.7837 31.839 29.8078 32.1358C29.3926 32.2624 25.5334 33.1723 20.6836 32.8728C20.6836 32.8728 17.0677 37.0078 15.9391 38.0838C15.7626 38.2512 15.5564 38.3187 15.417 38.2877C15.2227 38.2427 15.1693 38.0233 15.1723 37.7054L15.2019 32.057C8.13927 30.1962 8.55009 23.2018 8.63018 19.5407C8.71027 15.8796 9.43552 12.8796 11.5905 10.8627C15.4615 7.53778 23.4363 8.03426 23.4363 8.03426C30.1712 8.06239 33.3985 9.98506 34.1475 10.6292C36.6317 12.6461 37.8968 17.4746 36.9714 24.5464ZM36.0044 8.91613C35.1189 8.14538 31.5446 5.68403 23.5831 5.65027C23.5831 5.65027 14.1949 5.113 9.61795 9.09616C7.06993 11.5125 6.17412 15.047 6.07919 19.431C5.98576 23.8164 5.86266 32.0303 14.2127 34.2582L14.2216 34.261L14.2157 37.659C14.2157 37.659 14.1638 39.036 15.1189 39.3173C16.2742 39.6562 16.952 38.6112 18.057 37.4832C18.6621 36.8644 19.4971 35.9558 20.1289 35.261C25.8405 35.7139 30.232 34.6745 30.7318 34.5212C31.8842 34.1653 38.41 33.3735 39.4719 25.1582C40.5665 16.6884 38.941 11.3325 36.0044 8.91613Z" />
</svg>
