<svg width="42" height="14" viewBox="0 0 42 14" fill="none" xmlns="http://www.w3.org/2000/svg">
<g id="visa">
<path id="Vector" d="M17.4945 0.269531L14.6367 13.9106H18.1007L20.8718 0.269531H17.4945Z" fill="#A1AEBA"/>
<path id="Vector_2" d="M12.4702 0.269409L8.91963 9.513L7.44744 1.61557C7.27425 0.718128 6.58147 0.269409 5.88868 0.269409H0.0865773L0 0.628406C1.21238 0.897637 2.51138 1.34635 3.37736 1.79506C3.89695 2.0643 3.98352 2.33352 4.15671 2.96172L6.8413 13.8207H10.4784L16.0207 0.179688H12.4702V0.269409Z" fill="#A1AEBA"/>
<path id="Vector_3" d="M39.4028 0.269531H36.4584C35.7656 0.269531 35.2461 0.628539 34.9863 1.25675L29.877 13.9106H33.4275L34.1203 11.8465H38.4502L38.8832 13.9106H42.0007L39.4028 0.269531ZM35.2461 9.06441L37.0646 3.94906L38.1038 9.06441H35.2461Z" fill="#A1AEBA"/>
<path id="Vector_4" d="M25.3717 4.03847C25.3717 3.58975 25.8047 3.0513 26.8439 2.87181C27.3634 2.78207 28.6624 2.78208 30.2212 3.50003L30.8274 0.628217C30.048 0.358986 28.9222 0 27.6233 0C24.2459 0 21.9077 1.88462 21.9077 4.48719C21.9077 6.46155 23.6397 7.53845 24.8521 8.16666C26.1511 8.79486 26.5841 9.2436 26.5841 9.87181C26.5841 10.7692 25.5449 11.218 24.5057 11.218C22.7737 11.218 21.8211 10.7692 21.0417 10.3205L20.4355 13.2821C21.2149 13.641 22.6871 14 24.2459 14C27.7964 14 30.1346 12.2052 30.1346 9.33337C30.1346 5.92311 25.2851 5.65385 25.3717 4.03847Z" fill="#A1AEBA"/>
</g>
</svg>
