<svg viewBox="0 0 46 45" fill="white" xmlns="http://www.w3.org/2000/svg">
<path fill-rule="evenodd" clip-rule="evenodd" d="M40.2483 22.0696C40.2483 31.1492 32.829 38.5119 23.6786 38.5119C20.772 38.5119 18.0422 37.7702 15.6685 36.4661L6.49219 39.3822L9.48257 30.5608C7.97323 28.0822 7.10536 25.1767 7.10536 22.0708C7.10536 12.9876 14.5247 5.62602 23.6774 5.62602C32.8302 5.62602 40.2472 12.9876 40.2472 22.0696M23.6774 8.24496C15.9928 8.24496 9.74434 14.4462 9.74434 22.0696C9.74434 25.093 10.729 27.8947 12.3975 30.1752L10.6582 35.3081L16.0116 33.6078C18.2108 35.0511 20.8462 35.893 23.6774 35.893C31.3586 35.893 37.6082 29.6917 37.6082 22.0696C37.6082 14.4474 31.3586 8.24496 23.6774 8.24496ZM32.0448 25.8571C31.9422 25.6884 31.671 25.5882 31.2666 25.3866C30.8598 25.1849 28.8623 24.2098 28.4896 24.0753C28.1182 23.9409 27.8446 23.8737 27.5758 24.277C27.3046 24.6803 26.5263 25.5882 26.2881 25.8571C26.0523 26.1271 25.8153 26.1589 25.4096 25.9585C25.0028 25.7568 23.6928 25.33 22.1422 23.9586C20.9359 22.8891 20.1199 21.5708 19.8817 21.1675C19.6458 20.7642 19.8581 20.5473 20.0597 20.3456C20.2425 20.164 20.4666 19.8751 20.6694 19.6405C20.8734 19.4046 20.9406 19.236 21.0762 18.966C21.2118 18.6971 21.1446 18.4625 21.042 18.2608C20.9418 18.0592 20.1281 16.0758 19.7897 15.2681C19.4525 14.4627 19.114 14.4922 18.8758 14.4922C18.6377 14.4922 18.2014 14.563 18.2014 14.563C18.2014 14.563 17.3866 14.6632 17.0151 15.0665C16.6437 15.4697 15.5942 16.4449 15.5942 18.4271C15.5942 20.4093 17.0481 22.3278 17.2509 22.5955C17.4549 22.8655 20.0597 27.0681 24.1904 28.6812C28.3198 30.2943 28.3198 29.7566 29.0651 29.6882C29.8091 29.6222 31.4682 28.7142 31.8066 27.772C32.1462 26.8311 32.1462 26.0233 32.0448 25.8559" />
</svg>
